G04 EAGLE Gerber RS-274X export*
G75*
%MOMM*%
%FSLAX34Y34*%
%LPD*%
%INTop Copper*%
%IPPOS*%
%AMOC8*
5,1,8,0,0,1.08239X$1,22.5*%
G01*
%ADD10R,1.500000X1.300000*%
%ADD11R,2.150000X1.800000*%
%ADD12R,1.800000X2.150000*%
%ADD13R,1.600000X2.600000*%
%ADD14R,0.300000X0.800000*%
%ADD15R,2.400000X2.200000*%
%ADD16R,1.300000X0.850000*%
%ADD17R,3.250000X2.500000*%
%ADD18R,1.300000X1.500000*%
%ADD19R,1.300000X1.600000*%
%ADD20R,1.300000X1.300000*%
%ADD21R,1.300000X2.000000*%
%ADD22R,1.950000X2.500000*%
%ADD23C,1.524000*%
%ADD24P,1.649562X8X67.900000*%
%ADD25C,0.080000*%
%ADD26R,4.100000X4.100000*%
%ADD27R,0.650000X0.500000*%
%ADD28R,0.500000X0.650000*%
%ADD29R,1.450000X0.860000*%
%ADD30R,3.500000X3.500000*%
%ADD31R,0.500000X0.900000*%
%ADD32C,0.300000*%
%ADD33R,1.600000X1.300000*%
%ADD34P,1.732040X8X22.500000*%
%ADD35C,1.208000*%
%ADD36C,1.408000*%
%ADD37C,0.203200*%
%ADD38C,0.756400*%


D10*
X-96380Y254130D03*
X-96380Y235130D03*
D11*
X-242590Y178040D03*
X-210090Y178040D03*
D12*
X-128500Y264450D03*
X-128500Y231950D03*
D13*
X-169580Y265980D03*
X-169580Y229980D03*
X-221780Y266580D03*
X-221780Y230580D03*
D14*
G36*
X166724Y-262454D02*
X164705Y-264673D01*
X158788Y-259290D01*
X160807Y-257071D01*
X166724Y-262454D01*
G37*
G36*
X170089Y-258755D02*
X168070Y-260974D01*
X162153Y-255591D01*
X164172Y-253372D01*
X170089Y-258755D01*
G37*
G36*
X173454Y-255057D02*
X171435Y-257276D01*
X165518Y-251893D01*
X167537Y-249674D01*
X173454Y-255057D01*
G37*
G36*
X176819Y-251359D02*
X174800Y-253578D01*
X168883Y-248195D01*
X170902Y-245976D01*
X176819Y-251359D01*
G37*
G36*
X180184Y-247661D02*
X178165Y-249880D01*
X172248Y-244497D01*
X174267Y-242278D01*
X180184Y-247661D01*
G37*
G36*
X183549Y-243963D02*
X181530Y-246182D01*
X175613Y-240799D01*
X177632Y-238580D01*
X183549Y-243963D01*
G37*
G36*
X186914Y-240265D02*
X184895Y-242484D01*
X178978Y-237101D01*
X180997Y-234882D01*
X186914Y-240265D01*
G37*
G36*
X190279Y-236567D02*
X188260Y-238786D01*
X182343Y-233403D01*
X184362Y-231184D01*
X190279Y-236567D01*
G37*
G36*
X193644Y-232868D02*
X191625Y-235087D01*
X185708Y-229704D01*
X187727Y-227485D01*
X193644Y-232868D01*
G37*
G36*
X197010Y-229170D02*
X194991Y-231389D01*
X189074Y-226006D01*
X191093Y-223787D01*
X197010Y-229170D01*
G37*
G36*
X200375Y-225472D02*
X198356Y-227691D01*
X192439Y-222308D01*
X194458Y-220089D01*
X200375Y-225472D01*
G37*
G36*
X203740Y-221774D02*
X201721Y-223993D01*
X195804Y-218610D01*
X197823Y-216391D01*
X203740Y-221774D01*
G37*
G36*
X207105Y-218076D02*
X205086Y-220295D01*
X199169Y-214912D01*
X201188Y-212693D01*
X207105Y-218076D01*
G37*
G36*
X210470Y-214378D02*
X208451Y-216597D01*
X202534Y-211214D01*
X204553Y-208995D01*
X210470Y-214378D01*
G37*
G36*
X213835Y-210679D02*
X211816Y-212898D01*
X205899Y-207515D01*
X207918Y-205296D01*
X213835Y-210679D01*
G37*
G36*
X217200Y-206981D02*
X215181Y-209200D01*
X209264Y-203817D01*
X211283Y-201598D01*
X217200Y-206981D01*
G37*
G36*
X220565Y-203283D02*
X218546Y-205502D01*
X212629Y-200119D01*
X214648Y-197900D01*
X220565Y-203283D01*
G37*
G36*
X223930Y-199585D02*
X221911Y-201804D01*
X215994Y-196421D01*
X218013Y-194202D01*
X223930Y-199585D01*
G37*
G36*
X227295Y-195887D02*
X225276Y-198106D01*
X219359Y-192723D01*
X221378Y-190504D01*
X227295Y-195887D01*
G37*
G36*
X230660Y-192189D02*
X228641Y-194408D01*
X222724Y-189025D01*
X224743Y-186806D01*
X230660Y-192189D01*
G37*
G36*
X234025Y-188491D02*
X232006Y-190710D01*
X226089Y-185327D01*
X228108Y-183108D01*
X234025Y-188491D01*
G37*
G36*
X237390Y-184792D02*
X235371Y-187011D01*
X229454Y-181628D01*
X231473Y-179409D01*
X237390Y-184792D01*
G37*
G36*
X240755Y-181094D02*
X238736Y-183313D01*
X232819Y-177930D01*
X234838Y-175711D01*
X240755Y-181094D01*
G37*
G36*
X244120Y-177396D02*
X242101Y-179615D01*
X236184Y-174232D01*
X238203Y-172013D01*
X244120Y-177396D01*
G37*
G36*
X247485Y-173698D02*
X245466Y-175917D01*
X239549Y-170534D01*
X241568Y-168315D01*
X247485Y-173698D01*
G37*
G36*
X250851Y-170000D02*
X248832Y-172219D01*
X242915Y-166836D01*
X244934Y-164617D01*
X250851Y-170000D01*
G37*
D15*
G36*
X174313Y-288289D02*
X158160Y-306039D01*
X141889Y-291233D01*
X158042Y-273483D01*
X174313Y-288289D01*
G37*
D16*
G36*
X180600Y-294009D02*
X171851Y-303623D01*
X165564Y-297903D01*
X174313Y-288289D01*
X180600Y-294009D01*
G37*
G36*
X290301Y-173449D02*
X281552Y-183063D01*
X275265Y-177343D01*
X284014Y-167729D01*
X290301Y-173449D01*
G37*
D15*
G36*
X291417Y-159593D02*
X275264Y-177343D01*
X258993Y-162537D01*
X275146Y-144787D01*
X291417Y-159593D01*
G37*
D17*
X-163260Y137820D03*
X-163260Y77820D03*
D18*
G36*
X30050Y34465D02*
X21317Y44096D01*
X32428Y54171D01*
X41161Y44540D01*
X30050Y34465D01*
G37*
G36*
X42812Y20389D02*
X34079Y30020D01*
X45190Y40095D01*
X53923Y30464D01*
X42812Y20389D01*
G37*
D19*
X-235700Y130840D03*
X-254700Y130840D03*
X-236260Y106820D03*
X-255260Y106820D03*
D20*
X-177780Y193080D03*
X-177780Y170080D03*
D21*
X-122780Y181580D03*
D19*
X-213300Y203300D03*
X-232300Y203300D03*
D18*
G36*
X119715Y46799D02*
X110176Y37966D01*
X99985Y48971D01*
X109524Y57804D01*
X119715Y46799D01*
G37*
G36*
X133655Y59709D02*
X124116Y50876D01*
X113925Y61881D01*
X123464Y70714D01*
X133655Y59709D01*
G37*
G36*
X137506Y28275D02*
X128076Y19327D01*
X117752Y30207D01*
X127182Y39155D01*
X137506Y28275D01*
G37*
G36*
X151288Y41353D02*
X141858Y32405D01*
X131534Y43285D01*
X140964Y52233D01*
X151288Y41353D01*
G37*
D22*
X-149590Y-62240D03*
X-180090Y-62240D03*
D10*
X-168880Y-134610D03*
X-168880Y-115610D03*
X-195130Y-133900D03*
X-195130Y-114900D03*
X-208060Y-157140D03*
X-208060Y-176140D03*
X-231940Y-157220D03*
X-231940Y-176220D03*
D23*
X-12792Y-29003D03*
D24*
X5043Y-10917D03*
X22877Y7168D03*
X-30877Y-11168D03*
X-13043Y6917D03*
X4792Y25003D03*
D10*
X224000Y236500D03*
X224000Y255500D03*
D25*
X193700Y146950D02*
X193700Y136750D01*
X191300Y136750D01*
X191300Y146950D01*
X193700Y146950D01*
X193700Y137510D02*
X191300Y137510D01*
X191300Y138270D02*
X193700Y138270D01*
X193700Y139030D02*
X191300Y139030D01*
X191300Y139790D02*
X193700Y139790D01*
X193700Y140550D02*
X191300Y140550D01*
X191300Y141310D02*
X193700Y141310D01*
X193700Y142070D02*
X191300Y142070D01*
X191300Y142830D02*
X193700Y142830D01*
X193700Y143590D02*
X191300Y143590D01*
X191300Y144350D02*
X193700Y144350D01*
X193700Y145110D02*
X191300Y145110D01*
X191300Y145870D02*
X193700Y145870D01*
X193700Y146630D02*
X191300Y146630D01*
X200200Y146950D02*
X200200Y136750D01*
X197800Y136750D01*
X197800Y146950D01*
X200200Y146950D01*
X200200Y137510D02*
X197800Y137510D01*
X197800Y138270D02*
X200200Y138270D01*
X200200Y139030D02*
X197800Y139030D01*
X197800Y139790D02*
X200200Y139790D01*
X200200Y140550D02*
X197800Y140550D01*
X197800Y141310D02*
X200200Y141310D01*
X200200Y142070D02*
X197800Y142070D01*
X197800Y142830D02*
X200200Y142830D01*
X200200Y143590D02*
X197800Y143590D01*
X197800Y144350D02*
X200200Y144350D01*
X200200Y145110D02*
X197800Y145110D01*
X197800Y145870D02*
X200200Y145870D01*
X200200Y146630D02*
X197800Y146630D01*
X206700Y146950D02*
X206700Y136750D01*
X204300Y136750D01*
X204300Y146950D01*
X206700Y146950D01*
X206700Y137510D02*
X204300Y137510D01*
X204300Y138270D02*
X206700Y138270D01*
X206700Y139030D02*
X204300Y139030D01*
X204300Y139790D02*
X206700Y139790D01*
X206700Y140550D02*
X204300Y140550D01*
X204300Y141310D02*
X206700Y141310D01*
X206700Y142070D02*
X204300Y142070D01*
X204300Y142830D02*
X206700Y142830D01*
X206700Y143590D02*
X204300Y143590D01*
X204300Y144350D02*
X206700Y144350D01*
X206700Y145110D02*
X204300Y145110D01*
X204300Y145870D02*
X206700Y145870D01*
X206700Y146630D02*
X204300Y146630D01*
X213200Y146950D02*
X213200Y136750D01*
X210800Y136750D01*
X210800Y146950D01*
X213200Y146950D01*
X213200Y137510D02*
X210800Y137510D01*
X210800Y138270D02*
X213200Y138270D01*
X213200Y139030D02*
X210800Y139030D01*
X210800Y139790D02*
X213200Y139790D01*
X213200Y140550D02*
X210800Y140550D01*
X210800Y141310D02*
X213200Y141310D01*
X213200Y142070D02*
X210800Y142070D01*
X210800Y142830D02*
X213200Y142830D01*
X213200Y143590D02*
X210800Y143590D01*
X210800Y144350D02*
X213200Y144350D01*
X213200Y145110D02*
X210800Y145110D01*
X210800Y145870D02*
X213200Y145870D01*
X213200Y146630D02*
X210800Y146630D01*
X219700Y146950D02*
X219700Y136750D01*
X217300Y136750D01*
X217300Y146950D01*
X219700Y146950D01*
X219700Y137510D02*
X217300Y137510D01*
X217300Y138270D02*
X219700Y138270D01*
X219700Y139030D02*
X217300Y139030D01*
X217300Y139790D02*
X219700Y139790D01*
X219700Y140550D02*
X217300Y140550D01*
X217300Y141310D02*
X219700Y141310D01*
X219700Y142070D02*
X217300Y142070D01*
X217300Y142830D02*
X219700Y142830D01*
X219700Y143590D02*
X217300Y143590D01*
X217300Y144350D02*
X219700Y144350D01*
X219700Y145110D02*
X217300Y145110D01*
X217300Y145870D02*
X219700Y145870D01*
X219700Y146630D02*
X217300Y146630D01*
X226200Y146950D02*
X226200Y136750D01*
X223800Y136750D01*
X223800Y146950D01*
X226200Y146950D01*
X226200Y137510D02*
X223800Y137510D01*
X223800Y138270D02*
X226200Y138270D01*
X226200Y139030D02*
X223800Y139030D01*
X223800Y139790D02*
X226200Y139790D01*
X226200Y140550D02*
X223800Y140550D01*
X223800Y141310D02*
X226200Y141310D01*
X226200Y142070D02*
X223800Y142070D01*
X223800Y142830D02*
X226200Y142830D01*
X226200Y143590D02*
X223800Y143590D01*
X223800Y144350D02*
X226200Y144350D01*
X226200Y145110D02*
X223800Y145110D01*
X223800Y145870D02*
X226200Y145870D01*
X226200Y146630D02*
X223800Y146630D01*
X232700Y146950D02*
X232700Y136750D01*
X230300Y136750D01*
X230300Y146950D01*
X232700Y146950D01*
X232700Y137510D02*
X230300Y137510D01*
X230300Y138270D02*
X232700Y138270D01*
X232700Y139030D02*
X230300Y139030D01*
X230300Y139790D02*
X232700Y139790D01*
X232700Y140550D02*
X230300Y140550D01*
X230300Y141310D02*
X232700Y141310D01*
X232700Y142070D02*
X230300Y142070D01*
X230300Y142830D02*
X232700Y142830D01*
X232700Y143590D02*
X230300Y143590D01*
X230300Y144350D02*
X232700Y144350D01*
X232700Y145110D02*
X230300Y145110D01*
X230300Y145870D02*
X232700Y145870D01*
X232700Y146630D02*
X230300Y146630D01*
X232700Y193050D02*
X232700Y203250D01*
X232700Y193050D02*
X230300Y193050D01*
X230300Y203250D01*
X232700Y203250D01*
X232700Y193810D02*
X230300Y193810D01*
X230300Y194570D02*
X232700Y194570D01*
X232700Y195330D02*
X230300Y195330D01*
X230300Y196090D02*
X232700Y196090D01*
X232700Y196850D02*
X230300Y196850D01*
X230300Y197610D02*
X232700Y197610D01*
X232700Y198370D02*
X230300Y198370D01*
X230300Y199130D02*
X232700Y199130D01*
X232700Y199890D02*
X230300Y199890D01*
X230300Y200650D02*
X232700Y200650D01*
X232700Y201410D02*
X230300Y201410D01*
X230300Y202170D02*
X232700Y202170D01*
X232700Y202930D02*
X230300Y202930D01*
X226200Y203250D02*
X226200Y193050D01*
X223800Y193050D01*
X223800Y203250D01*
X226200Y203250D01*
X226200Y193810D02*
X223800Y193810D01*
X223800Y194570D02*
X226200Y194570D01*
X226200Y195330D02*
X223800Y195330D01*
X223800Y196090D02*
X226200Y196090D01*
X226200Y196850D02*
X223800Y196850D01*
X223800Y197610D02*
X226200Y197610D01*
X226200Y198370D02*
X223800Y198370D01*
X223800Y199130D02*
X226200Y199130D01*
X226200Y199890D02*
X223800Y199890D01*
X223800Y200650D02*
X226200Y200650D01*
X226200Y201410D02*
X223800Y201410D01*
X223800Y202170D02*
X226200Y202170D01*
X226200Y202930D02*
X223800Y202930D01*
X219700Y203250D02*
X219700Y193050D01*
X217300Y193050D01*
X217300Y203250D01*
X219700Y203250D01*
X219700Y193810D02*
X217300Y193810D01*
X217300Y194570D02*
X219700Y194570D01*
X219700Y195330D02*
X217300Y195330D01*
X217300Y196090D02*
X219700Y196090D01*
X219700Y196850D02*
X217300Y196850D01*
X217300Y197610D02*
X219700Y197610D01*
X219700Y198370D02*
X217300Y198370D01*
X217300Y199130D02*
X219700Y199130D01*
X219700Y199890D02*
X217300Y199890D01*
X217300Y200650D02*
X219700Y200650D01*
X219700Y201410D02*
X217300Y201410D01*
X217300Y202170D02*
X219700Y202170D01*
X219700Y202930D02*
X217300Y202930D01*
X213200Y203250D02*
X213200Y193050D01*
X210800Y193050D01*
X210800Y203250D01*
X213200Y203250D01*
X213200Y193810D02*
X210800Y193810D01*
X210800Y194570D02*
X213200Y194570D01*
X213200Y195330D02*
X210800Y195330D01*
X210800Y196090D02*
X213200Y196090D01*
X213200Y196850D02*
X210800Y196850D01*
X210800Y197610D02*
X213200Y197610D01*
X213200Y198370D02*
X210800Y198370D01*
X210800Y199130D02*
X213200Y199130D01*
X213200Y199890D02*
X210800Y199890D01*
X210800Y200650D02*
X213200Y200650D01*
X213200Y201410D02*
X210800Y201410D01*
X210800Y202170D02*
X213200Y202170D01*
X213200Y202930D02*
X210800Y202930D01*
X206700Y203250D02*
X206700Y193050D01*
X204300Y193050D01*
X204300Y203250D01*
X206700Y203250D01*
X206700Y193810D02*
X204300Y193810D01*
X204300Y194570D02*
X206700Y194570D01*
X206700Y195330D02*
X204300Y195330D01*
X204300Y196090D02*
X206700Y196090D01*
X206700Y196850D02*
X204300Y196850D01*
X204300Y197610D02*
X206700Y197610D01*
X206700Y198370D02*
X204300Y198370D01*
X204300Y199130D02*
X206700Y199130D01*
X206700Y199890D02*
X204300Y199890D01*
X204300Y200650D02*
X206700Y200650D01*
X206700Y201410D02*
X204300Y201410D01*
X204300Y202170D02*
X206700Y202170D01*
X206700Y202930D02*
X204300Y202930D01*
X200200Y203250D02*
X200200Y193050D01*
X197800Y193050D01*
X197800Y203250D01*
X200200Y203250D01*
X200200Y193810D02*
X197800Y193810D01*
X197800Y194570D02*
X200200Y194570D01*
X200200Y195330D02*
X197800Y195330D01*
X197800Y196090D02*
X200200Y196090D01*
X200200Y196850D02*
X197800Y196850D01*
X197800Y197610D02*
X200200Y197610D01*
X200200Y198370D02*
X197800Y198370D01*
X197800Y199130D02*
X200200Y199130D01*
X200200Y199890D02*
X197800Y199890D01*
X197800Y200650D02*
X200200Y200650D01*
X200200Y201410D02*
X197800Y201410D01*
X197800Y202170D02*
X200200Y202170D01*
X200200Y202930D02*
X197800Y202930D01*
X193700Y203250D02*
X193700Y193050D01*
X191300Y193050D01*
X191300Y203250D01*
X193700Y203250D01*
X193700Y193810D02*
X191300Y193810D01*
X191300Y194570D02*
X193700Y194570D01*
X193700Y195330D02*
X191300Y195330D01*
X191300Y196090D02*
X193700Y196090D01*
X193700Y196850D02*
X191300Y196850D01*
X191300Y197610D02*
X193700Y197610D01*
X193700Y198370D02*
X191300Y198370D01*
X191300Y199130D02*
X193700Y199130D01*
X193700Y199890D02*
X191300Y199890D01*
X191300Y200650D02*
X193700Y200650D01*
X193700Y201410D02*
X191300Y201410D01*
X191300Y202170D02*
X193700Y202170D01*
X193700Y202930D02*
X191300Y202930D01*
X188950Y188300D02*
X178750Y188300D01*
X178750Y190700D01*
X188950Y190700D01*
X188950Y188300D01*
X188950Y189060D02*
X178750Y189060D01*
X178750Y189820D02*
X188950Y189820D01*
X188950Y190580D02*
X178750Y190580D01*
X178750Y181800D02*
X188950Y181800D01*
X178750Y181800D02*
X178750Y184200D01*
X188950Y184200D01*
X188950Y181800D01*
X188950Y182560D02*
X178750Y182560D01*
X178750Y183320D02*
X188950Y183320D01*
X188950Y184080D02*
X178750Y184080D01*
X178750Y175300D02*
X188950Y175300D01*
X178750Y175300D02*
X178750Y177700D01*
X188950Y177700D01*
X188950Y175300D01*
X188950Y176060D02*
X178750Y176060D01*
X178750Y176820D02*
X188950Y176820D01*
X188950Y177580D02*
X178750Y177580D01*
X178750Y168800D02*
X188950Y168800D01*
X178750Y168800D02*
X178750Y171200D01*
X188950Y171200D01*
X188950Y168800D01*
X188950Y169560D02*
X178750Y169560D01*
X178750Y170320D02*
X188950Y170320D01*
X188950Y171080D02*
X178750Y171080D01*
X178750Y162300D02*
X188950Y162300D01*
X178750Y162300D02*
X178750Y164700D01*
X188950Y164700D01*
X188950Y162300D01*
X188950Y163060D02*
X178750Y163060D01*
X178750Y163820D02*
X188950Y163820D01*
X188950Y164580D02*
X178750Y164580D01*
X178750Y155800D02*
X188950Y155800D01*
X178750Y155800D02*
X178750Y158200D01*
X188950Y158200D01*
X188950Y155800D01*
X188950Y156560D02*
X178750Y156560D01*
X178750Y157320D02*
X188950Y157320D01*
X188950Y158080D02*
X178750Y158080D01*
X178750Y149300D02*
X188950Y149300D01*
X178750Y149300D02*
X178750Y151700D01*
X188950Y151700D01*
X188950Y149300D01*
X188950Y150060D02*
X178750Y150060D01*
X178750Y150820D02*
X188950Y150820D01*
X188950Y151580D02*
X178750Y151580D01*
X235050Y149300D02*
X245250Y149300D01*
X235050Y149300D02*
X235050Y151700D01*
X245250Y151700D01*
X245250Y149300D01*
X245250Y150060D02*
X235050Y150060D01*
X235050Y150820D02*
X245250Y150820D01*
X245250Y151580D02*
X235050Y151580D01*
X235050Y155800D02*
X245250Y155800D01*
X235050Y155800D02*
X235050Y158200D01*
X245250Y158200D01*
X245250Y155800D01*
X245250Y156560D02*
X235050Y156560D01*
X235050Y157320D02*
X245250Y157320D01*
X245250Y158080D02*
X235050Y158080D01*
X235050Y162300D02*
X245250Y162300D01*
X235050Y162300D02*
X235050Y164700D01*
X245250Y164700D01*
X245250Y162300D01*
X245250Y163060D02*
X235050Y163060D01*
X235050Y163820D02*
X245250Y163820D01*
X245250Y164580D02*
X235050Y164580D01*
X235050Y168800D02*
X245250Y168800D01*
X235050Y168800D02*
X235050Y171200D01*
X245250Y171200D01*
X245250Y168800D01*
X245250Y169560D02*
X235050Y169560D01*
X235050Y170320D02*
X245250Y170320D01*
X245250Y171080D02*
X235050Y171080D01*
X235050Y175300D02*
X245250Y175300D01*
X235050Y175300D02*
X235050Y177700D01*
X245250Y177700D01*
X245250Y175300D01*
X245250Y176060D02*
X235050Y176060D01*
X235050Y176820D02*
X245250Y176820D01*
X245250Y177580D02*
X235050Y177580D01*
X235050Y181800D02*
X245250Y181800D01*
X235050Y181800D02*
X235050Y184200D01*
X245250Y184200D01*
X245250Y181800D01*
X245250Y182560D02*
X235050Y182560D01*
X235050Y183320D02*
X245250Y183320D01*
X245250Y184080D02*
X235050Y184080D01*
X235050Y188300D02*
X245250Y188300D01*
X235050Y188300D02*
X235050Y190700D01*
X245250Y190700D01*
X245250Y188300D01*
X245250Y189060D02*
X235050Y189060D01*
X235050Y189820D02*
X245250Y189820D01*
X245250Y190580D02*
X235050Y190580D01*
D26*
X212000Y170000D03*
D10*
X268000Y198500D03*
X268000Y217500D03*
D27*
X158250Y146000D03*
X158250Y154000D03*
X158250Y162000D03*
X158250Y170000D03*
X145750Y170000D03*
X145750Y162000D03*
X145750Y154000D03*
X145750Y146000D03*
X158250Y106000D03*
X158250Y114000D03*
X158250Y122000D03*
X158250Y130000D03*
X145750Y130000D03*
X145750Y122000D03*
X145750Y114000D03*
X145750Y106000D03*
D28*
X242000Y118250D03*
X234000Y118250D03*
X226000Y118250D03*
X218000Y118250D03*
X218000Y105750D03*
X226000Y105750D03*
X234000Y105750D03*
X242000Y105750D03*
D29*
G36*
X116277Y-20588D02*
X126109Y-9932D01*
X132429Y-15764D01*
X122597Y-26420D01*
X116277Y-20588D01*
G37*
G36*
X125611Y-29201D02*
X135443Y-18545D01*
X141763Y-24377D01*
X131931Y-35033D01*
X125611Y-29201D01*
G37*
G36*
X134944Y-37813D02*
X144776Y-27157D01*
X151096Y-32989D01*
X141264Y-43645D01*
X134944Y-37813D01*
G37*
G36*
X144278Y-46426D02*
X154110Y-35770D01*
X160430Y-41602D01*
X150598Y-52258D01*
X144278Y-46426D01*
G37*
G36*
X153611Y-55039D02*
X163443Y-44383D01*
X169763Y-50215D01*
X159931Y-60871D01*
X153611Y-55039D01*
G37*
G36*
X162944Y-63651D02*
X172776Y-52995D01*
X179096Y-58827D01*
X169264Y-69483D01*
X162944Y-63651D01*
G37*
G36*
X172278Y-72264D02*
X182110Y-61608D01*
X188430Y-67440D01*
X178598Y-78096D01*
X172278Y-72264D01*
G37*
G36*
X181611Y-80877D02*
X191443Y-70221D01*
X197763Y-76053D01*
X187931Y-86709D01*
X181611Y-80877D01*
G37*
G36*
X190945Y-89489D02*
X200777Y-78833D01*
X207097Y-84665D01*
X197265Y-95321D01*
X190945Y-89489D01*
G37*
G36*
X200278Y-98102D02*
X210110Y-87446D01*
X216430Y-93278D01*
X206598Y-103934D01*
X200278Y-98102D01*
G37*
G36*
X209612Y-106714D02*
X219444Y-96058D01*
X225764Y-101890D01*
X215932Y-112546D01*
X209612Y-106714D01*
G37*
G36*
X218945Y-115327D02*
X228777Y-104671D01*
X235097Y-110503D01*
X225265Y-121159D01*
X218945Y-115327D01*
G37*
G36*
X228278Y-123940D02*
X238110Y-113284D01*
X244430Y-119116D01*
X234598Y-129772D01*
X228278Y-123940D01*
G37*
G36*
X237612Y-132552D02*
X247444Y-121896D01*
X253764Y-127728D01*
X243932Y-138384D01*
X237612Y-132552D01*
G37*
G36*
X-3486Y-150374D02*
X6346Y-139718D01*
X12666Y-145550D01*
X2834Y-156206D01*
X-3486Y-150374D01*
G37*
G36*
X5848Y-158987D02*
X15680Y-148331D01*
X22000Y-154163D01*
X12168Y-164819D01*
X5848Y-158987D01*
G37*
G36*
X15181Y-167599D02*
X25013Y-156943D01*
X31333Y-162775D01*
X21501Y-173431D01*
X15181Y-167599D01*
G37*
G36*
X24515Y-176212D02*
X34347Y-165556D01*
X40667Y-171388D01*
X30835Y-182044D01*
X24515Y-176212D01*
G37*
G36*
X33848Y-184825D02*
X43680Y-174169D01*
X50000Y-180001D01*
X40168Y-190657D01*
X33848Y-184825D01*
G37*
G36*
X43181Y-193437D02*
X53013Y-182781D01*
X59333Y-188613D01*
X49501Y-199269D01*
X43181Y-193437D01*
G37*
G36*
X52515Y-202050D02*
X62347Y-191394D01*
X68667Y-197226D01*
X58835Y-207882D01*
X52515Y-202050D01*
G37*
G36*
X61848Y-210662D02*
X71680Y-200006D01*
X78000Y-205838D01*
X68168Y-216494D01*
X61848Y-210662D01*
G37*
G36*
X71182Y-219275D02*
X81014Y-208619D01*
X87334Y-214451D01*
X77502Y-225107D01*
X71182Y-219275D01*
G37*
G36*
X80515Y-227888D02*
X90347Y-217232D01*
X96667Y-223064D01*
X86835Y-233720D01*
X80515Y-227888D01*
G37*
G36*
X89849Y-236500D02*
X99681Y-225844D01*
X106001Y-231676D01*
X96169Y-242332D01*
X89849Y-236500D01*
G37*
G36*
X99182Y-245113D02*
X109014Y-234457D01*
X115334Y-240289D01*
X105502Y-250945D01*
X99182Y-245113D01*
G37*
G36*
X108515Y-253726D02*
X118347Y-243070D01*
X124667Y-248902D01*
X114835Y-259558D01*
X108515Y-253726D01*
G37*
G36*
X117849Y-262338D02*
X127681Y-251682D01*
X134001Y-257514D01*
X124169Y-268170D01*
X117849Y-262338D01*
G37*
G36*
X52803Y-86792D02*
X42147Y-76960D01*
X47979Y-70640D01*
X58635Y-80472D01*
X52803Y-86792D01*
G37*
G36*
X44191Y-96126D02*
X33535Y-86294D01*
X39367Y-79974D01*
X50023Y-89806D01*
X44191Y-96126D01*
G37*
G36*
X35578Y-105459D02*
X24922Y-95627D01*
X30754Y-89307D01*
X41410Y-99139D01*
X35578Y-105459D01*
G37*
G36*
X26965Y-114792D02*
X16309Y-104960D01*
X22141Y-98640D01*
X32797Y-108472D01*
X26965Y-114792D01*
G37*
G36*
X18353Y-124126D02*
X7697Y-114294D01*
X13529Y-107974D01*
X24185Y-117806D01*
X18353Y-124126D01*
G37*
G36*
X61416Y-77459D02*
X50760Y-67627D01*
X56592Y-61307D01*
X67248Y-71139D01*
X61416Y-77459D01*
G37*
G36*
X70028Y-68125D02*
X59372Y-58293D01*
X65204Y-51973D01*
X75860Y-61805D01*
X70028Y-68125D01*
G37*
G36*
X78641Y-58792D02*
X67985Y-48960D01*
X73817Y-42640D01*
X84473Y-52472D01*
X78641Y-58792D01*
G37*
G36*
X87254Y-49459D02*
X76598Y-39627D01*
X82430Y-33307D01*
X93086Y-43139D01*
X87254Y-49459D01*
G37*
G36*
X95866Y-40125D02*
X85210Y-30293D01*
X91042Y-23973D01*
X101698Y-33805D01*
X95866Y-40125D01*
G37*
D30*
G36*
X114832Y-133485D02*
X138567Y-107764D01*
X164288Y-131499D01*
X140553Y-157220D01*
X114832Y-133485D01*
G37*
D31*
X138000Y298000D03*
X130000Y298000D03*
X122000Y298000D03*
X114000Y298000D03*
X114000Y282000D03*
X122000Y282000D03*
X130000Y282000D03*
X138000Y282000D03*
X176000Y296000D03*
X168000Y296000D03*
X160000Y296000D03*
X152000Y296000D03*
X152000Y280000D03*
X160000Y280000D03*
X168000Y280000D03*
X176000Y280000D03*
D32*
X-270500Y144730D02*
X-277500Y144730D01*
X-270500Y144730D02*
X-270500Y137730D01*
X-277500Y137730D01*
X-277500Y144730D01*
X-277500Y140580D02*
X-270500Y140580D01*
X-270500Y143430D02*
X-277500Y143430D01*
X-277500Y162270D02*
X-270500Y162270D01*
X-270500Y155270D01*
X-277500Y155270D01*
X-277500Y162270D01*
X-277500Y158120D02*
X-270500Y158120D01*
X-270500Y160970D02*
X-277500Y160970D01*
X-288500Y146730D02*
X-295500Y146730D01*
X-288500Y146730D02*
X-288500Y139730D01*
X-295500Y139730D01*
X-295500Y146730D01*
X-295500Y142580D02*
X-288500Y142580D01*
X-288500Y145430D02*
X-295500Y145430D01*
X-295500Y164270D02*
X-288500Y164270D01*
X-288500Y157270D01*
X-295500Y157270D01*
X-295500Y164270D01*
X-295500Y160120D02*
X-288500Y160120D01*
X-288500Y162970D02*
X-295500Y162970D01*
D33*
X-102000Y86500D03*
X-102000Y105500D03*
D34*
X72000Y244000D03*
X64000Y210000D03*
X50000Y178000D03*
X-150000Y16000D03*
X-148000Y-10000D03*
X-160000Y-34000D03*
X-48000Y-166000D03*
X-68000Y-196000D03*
X-86000Y-230000D03*
X240000Y80000D03*
X266000Y82000D03*
X290000Y78000D03*
X-10000Y138000D03*
X-194000Y52000D03*
X-100000Y-264000D03*
X218000Y72000D03*
X26000Y148000D03*
X-168000Y40000D03*
X-102000Y-302000D03*
X194000Y56000D03*
D35*
X98000Y-327500D03*
X98000Y-308500D03*
D36*
X-86000Y54000D03*
X-106000Y54000D03*
X-106000Y32000D03*
X-86000Y32000D03*
D37*
X195000Y-230000D02*
X197500Y-232500D01*
X205000Y-232500D01*
X210000Y-237500D01*
X210000Y-267500D01*
X185000Y-267500D02*
X155000Y-267500D01*
X185000Y-267500D02*
X210000Y-267500D01*
X152500Y-265000D02*
X145000Y-257500D01*
X152500Y-265000D02*
X155000Y-267500D01*
X145000Y-257500D02*
X127500Y-257500D01*
X193042Y-227588D02*
X195000Y-230000D01*
X127500Y-257500D02*
X125925Y-259926D01*
X130000Y-277500D02*
X100000Y-307500D01*
X130000Y-277500D02*
X140000Y-277500D01*
X152500Y-265000D01*
X100000Y-307500D02*
X98000Y-308500D01*
X232500Y-175000D02*
X235000Y-177500D01*
X232500Y-175000D02*
X232500Y-167500D01*
X242500Y-167500D02*
X245000Y-167500D01*
X242500Y-167500D02*
X232500Y-167500D01*
X235000Y-177500D02*
X236787Y-179512D01*
X242500Y-170000D02*
X242500Y-167500D01*
X242500Y-170000D02*
X243517Y-172116D01*
X245000Y-167500D02*
X245000Y-132500D01*
X245688Y-130140D01*
X245000Y-167500D02*
X246883Y-168418D01*
X112500Y-50000D02*
X95000Y-32500D01*
X93454Y-32049D01*
X227500Y-175000D02*
X232500Y-175000D01*
X212500Y142500D02*
X212500Y170000D01*
X212500Y142500D02*
X212000Y141850D01*
X230000Y170000D02*
X230000Y197500D01*
X230000Y170000D02*
X212500Y170000D01*
X230000Y197500D02*
X231500Y198150D01*
X212500Y170000D02*
X212000Y170000D01*
X120000Y300000D02*
X115000Y300000D01*
X114000Y298000D01*
X120000Y300000D02*
X122000Y298000D01*
X122500Y300000D02*
X130000Y300000D01*
X122500Y300000D02*
X122000Y298000D01*
X130000Y300000D02*
X137500Y300000D01*
X138000Y298000D01*
X130000Y298000D02*
X130000Y300000D01*
X267500Y237500D02*
X267500Y217500D01*
X267500Y237500D02*
X242500Y237500D01*
X225000Y255000D01*
X224000Y255500D01*
X145000Y305000D02*
X138000Y298000D01*
X145000Y305000D02*
X180000Y305000D01*
X222500Y262500D01*
X222500Y257500D01*
X224000Y255500D01*
X232500Y217500D02*
X232500Y200000D01*
X232500Y217500D02*
X267500Y217500D01*
X232500Y200000D02*
X231500Y198150D01*
X267500Y217500D02*
X268000Y217500D01*
X5000Y32500D02*
X5000Y27500D01*
X5000Y32500D02*
X32500Y60000D01*
X40000Y60000D01*
X55000Y75000D01*
X137500Y75000D02*
X175000Y75000D01*
X137500Y75000D02*
X112500Y75000D01*
X55000Y75000D01*
X175000Y75000D02*
X194000Y56000D01*
X5000Y27500D02*
X4792Y25003D01*
X212500Y107500D02*
X212500Y140000D01*
X212500Y107500D02*
X185000Y107500D01*
X177500Y100000D01*
X162500Y100000D01*
X137500Y75000D01*
X212500Y140000D02*
X212000Y141850D01*
X-180000Y192500D02*
X-192500Y180000D01*
X-210000Y180000D01*
X-180000Y192500D02*
X-177780Y193080D01*
X-210000Y180000D02*
X-210090Y178040D01*
X-100000Y232500D02*
X-97500Y235000D01*
X-100000Y232500D02*
X-127500Y232500D01*
X-97500Y235000D02*
X-96380Y235130D01*
X-127500Y232500D02*
X-128500Y231950D01*
X-130000Y230000D02*
X-145000Y230000D01*
X-167500Y230000D01*
X-169580Y229980D01*
X-130000Y230000D02*
X-128500Y231950D01*
X-170000Y230000D02*
X-177500Y230000D01*
X-220000Y230000D01*
X-221780Y230580D01*
X-170000Y230000D02*
X-169580Y229980D01*
X-177500Y230000D02*
X-177500Y195000D01*
X-177780Y193080D01*
X-177500Y230000D02*
X-169580Y229980D01*
X-210000Y-175000D02*
X-227500Y-175000D01*
X-230000Y-175000D01*
X-231940Y-176220D01*
X-210000Y-175000D02*
X-208060Y-176140D01*
X-195000Y-115000D02*
X-180000Y-115000D01*
X-170000Y-115000D01*
X-168880Y-115610D01*
X-195000Y-115000D02*
X-195130Y-114900D01*
X-242500Y-165000D02*
X-232500Y-175000D01*
X-242500Y-165000D02*
X-247500Y-165000D01*
X-252500Y-160000D01*
X-252500Y-115000D01*
X-197500Y-115000D01*
X-232500Y-175000D02*
X-231940Y-176220D01*
X-197500Y-115000D02*
X-195130Y-114900D01*
X-180000Y-115000D02*
X-180000Y-62500D01*
X-180090Y-62240D01*
X-167500Y5000D02*
X-167500Y40000D01*
X-167500Y5000D02*
X-165000Y2500D01*
X-165000Y-22500D01*
X-180000Y-37500D01*
X-180000Y-60000D01*
X-168000Y40000D02*
X-167500Y40000D01*
X-180000Y-60000D02*
X-180090Y-62240D01*
X-227500Y-175000D02*
X-102500Y-300000D01*
X-102000Y-302000D01*
X-227500Y-175000D02*
X-231940Y-176220D01*
X-37500Y150000D02*
X25000Y150000D01*
X26000Y148000D01*
D38*
X112500Y-50000D03*
X227500Y-175000D03*
X185000Y-267500D03*
X112500Y75000D03*
X-145000Y230000D03*
X-37500Y150000D03*
D37*
X192500Y-185000D02*
X212500Y-205000D01*
X192500Y-185000D02*
X155000Y-185000D01*
X147500Y-235000D02*
X140000Y-242500D01*
X125000Y-242500D01*
X117500Y-250000D01*
X212500Y-205000D02*
X213232Y-205399D01*
X117500Y-250000D02*
X116591Y-251314D01*
D38*
X155000Y-185000D03*
X147500Y-235000D03*
D37*
X182500Y-232500D02*
X185000Y-232500D01*
X182500Y-232500D02*
X180000Y-230000D01*
X177500Y-230000D01*
X142500Y-265000D02*
X135000Y-272500D01*
X122500Y-272500D01*
X105000Y-255000D01*
X105000Y-245000D01*
X185000Y-232500D02*
X186311Y-234985D01*
X107258Y-242701D02*
X105000Y-245000D01*
X107500Y-242500D02*
X117500Y-232500D01*
X107500Y-242500D02*
X107258Y-242701D01*
D38*
X177500Y-230000D03*
X142500Y-265000D03*
X117500Y-232500D03*
D37*
X97500Y-235000D02*
X95000Y-237500D01*
X55000Y-237500D01*
X50000Y-232500D01*
X50000Y-210000D01*
X52500Y-45000D02*
X30000Y-22500D01*
X-2500Y-22500D01*
X-12500Y-12500D01*
X-30000Y-12500D01*
X97925Y-234088D02*
X97500Y-235000D01*
X-30000Y-12500D02*
X-30877Y-11168D01*
D38*
X50000Y-210000D03*
X52500Y-45000D03*
D37*
X87500Y-227500D02*
X85000Y-230000D01*
X57500Y-230000D01*
X87500Y-227500D02*
X88591Y-225476D01*
D38*
X57500Y-230000D03*
D37*
X165000Y-235000D02*
X175000Y-245000D01*
X165000Y-235000D02*
X162500Y-235000D01*
X162500Y-210000D02*
X85000Y-210000D01*
X80000Y-215000D01*
X175000Y-245000D02*
X176216Y-246079D01*
X80000Y-215000D02*
X79258Y-216863D01*
D38*
X162500Y-235000D03*
X162500Y-210000D03*
D37*
X157500Y-242500D02*
X167500Y-252500D01*
X157500Y-242500D02*
X155000Y-242500D01*
X155000Y-195000D02*
X65000Y-195000D01*
X62500Y-197500D01*
X167500Y-252500D02*
X169486Y-253475D01*
X62500Y-197500D02*
X60591Y-199638D01*
D38*
X155000Y-242500D03*
X155000Y-195000D03*
D37*
X172500Y-250000D02*
X175000Y-252500D01*
X185000Y-252500D01*
X162500Y-177500D02*
X92500Y-177500D01*
X80000Y-190000D01*
X65000Y-190000D01*
X62500Y-187500D01*
X55000Y-187500D01*
X52500Y-190000D01*
X172500Y-250000D02*
X172851Y-249777D01*
X52500Y-190000D02*
X51257Y-191025D01*
D38*
X185000Y-252500D03*
X162500Y-177500D03*
D37*
X162500Y-225000D02*
X177500Y-240000D01*
X162500Y-225000D02*
X107500Y-225000D01*
X77500Y-182500D02*
X75000Y-180000D01*
X42500Y-180000D01*
X177500Y-240000D02*
X179581Y-242381D01*
X41924Y-182413D02*
X42500Y-180000D01*
D38*
X107500Y-225000D03*
X77500Y-182500D03*
D37*
X37500Y-170000D02*
X35000Y-172500D01*
X37500Y-170000D02*
X92500Y-170000D01*
X35000Y-172500D02*
X32591Y-173800D01*
D38*
X92500Y-170000D03*
D37*
X12500Y-157500D02*
X10000Y-160000D01*
X-30000Y-160000D01*
X-40000Y-150000D01*
X-197500Y-150000D01*
X-200000Y-147500D01*
X-220000Y-147500D01*
X12500Y-157500D02*
X13924Y-156575D01*
D38*
X-220000Y-147500D03*
D37*
X42500Y7500D02*
X42500Y30000D01*
X42500Y7500D02*
X25000Y7500D01*
X42500Y30000D02*
X44001Y30242D01*
X25000Y7500D02*
X22877Y7168D01*
X197500Y-217500D02*
X200000Y-220000D01*
X197500Y-217500D02*
X100000Y-217500D01*
X85000Y-155000D02*
X75000Y-145000D01*
X25000Y-145000D02*
X7500Y-145000D01*
X25000Y-145000D02*
X75000Y-145000D01*
X7500Y-145000D02*
X5000Y-147500D01*
X199772Y-220192D02*
X200000Y-220000D01*
X5000Y-147500D02*
X4590Y-147962D01*
D38*
X100000Y-217500D03*
X85000Y-155000D03*
X25000Y-145000D03*
D37*
X40000Y-102500D02*
X35000Y-97500D01*
X40000Y-102500D02*
X70000Y-102500D01*
X35000Y-97500D02*
X33166Y-97383D01*
D38*
X70000Y-102500D03*
D37*
X47500Y-95000D02*
X42500Y-90000D01*
X47500Y-95000D02*
X132500Y-95000D01*
X42500Y-90000D02*
X41779Y-88050D01*
D38*
X132500Y-95000D03*
D37*
X185000Y-240000D02*
X190000Y-245000D01*
X192500Y-245000D01*
X195000Y-102500D02*
X200000Y-97500D01*
X207500Y-97500D01*
X182946Y-238683D02*
X185000Y-240000D01*
X207500Y-97500D02*
X208354Y-95690D01*
D38*
X192500Y-245000D03*
X195000Y-102500D03*
D37*
X190000Y-232500D02*
X197500Y-240000D01*
X202500Y-240000D01*
X207500Y-115000D02*
X217500Y-105000D01*
X189676Y-231286D02*
X190000Y-232500D01*
X217500Y-105000D02*
X217688Y-104302D01*
D38*
X202500Y-240000D03*
X207500Y-115000D03*
D37*
X197500Y-225000D02*
X200000Y-227500D01*
X230000Y-227500D01*
X245000Y-212500D01*
X235000Y-102500D02*
X217500Y-85000D01*
X212500Y-85000D01*
X210000Y-82500D01*
X202500Y-82500D01*
X200000Y-85000D01*
X196407Y-223890D02*
X197500Y-225000D01*
X199021Y-87077D02*
X200000Y-85000D01*
D38*
X245000Y-212500D03*
X235000Y-102500D03*
D37*
X197500Y-210000D02*
X202500Y-215000D01*
X197500Y-210000D02*
X187500Y-210000D01*
X187500Y-95000D02*
X187500Y-80000D01*
X202500Y-215000D02*
X203137Y-216494D01*
X187500Y-80000D02*
X189687Y-78465D01*
D38*
X187500Y-210000D03*
X187500Y-95000D03*
D37*
X172500Y-77500D02*
X180000Y-70000D01*
X172500Y-77500D02*
X85000Y-77500D01*
X62500Y-45000D02*
X35000Y-72500D01*
X-132500Y-72500D01*
X-142500Y-82500D01*
X-162500Y-82500D01*
X180000Y-70000D02*
X180354Y-69852D01*
D38*
X85000Y-77500D03*
X62500Y-45000D03*
X-162500Y-82500D03*
D37*
X167500Y-145000D02*
X220000Y-197500D01*
X160000Y-70000D02*
X160000Y-55000D01*
X220000Y-197500D02*
X219962Y-198003D01*
X160000Y-55000D02*
X161687Y-52627D01*
D38*
X167500Y-145000D03*
X160000Y-70000D03*
D37*
X235000Y-185000D02*
X237500Y-187500D01*
X240000Y-187500D01*
X255000Y-172500D01*
X255000Y-132500D01*
X257500Y-130000D01*
X257500Y-80000D01*
X215000Y-80000D01*
X182500Y-47500D01*
X172500Y-47500D01*
X165000Y-40000D01*
X155000Y-40000D01*
X152500Y-42500D01*
X233422Y-183210D02*
X235000Y-185000D01*
X152354Y-44014D02*
X152500Y-42500D01*
X130000Y10000D02*
X130000Y27500D01*
X135000Y-47500D02*
X147500Y-47500D01*
X150000Y-45000D01*
X130000Y27500D02*
X127629Y29241D01*
X152354Y-44014D02*
X150000Y-45000D01*
D38*
X130000Y10000D03*
X135000Y-47500D03*
D37*
X170000Y-135000D02*
X225000Y-190000D01*
X145000Y-35000D02*
X145000Y-20000D01*
X225000Y-190000D02*
X226692Y-190607D01*
X145000Y-35000D02*
X143020Y-35401D01*
X115000Y42500D02*
X110000Y47500D01*
X115000Y42500D02*
X127500Y42500D01*
X142500Y27500D01*
X152500Y27500D01*
X110000Y47500D02*
X109850Y47885D01*
D38*
X170000Y-135000D03*
X145000Y-20000D03*
X152500Y27500D03*
D37*
X225000Y198150D02*
X225000Y210000D01*
X142500Y0D02*
X125000Y-17500D01*
X124353Y-18176D01*
D38*
X225000Y210000D03*
X142500Y0D03*
D37*
X217500Y200000D02*
X217500Y225000D01*
X252500Y225000D01*
X217500Y200000D02*
X218500Y198150D01*
X82500Y-20000D02*
X82500Y-40000D01*
X82500Y-20000D02*
X110000Y-20000D01*
X150000Y20000D01*
X157500Y20000D01*
X182500Y45000D01*
X207500Y45000D01*
X230000Y67500D01*
X250000Y67500D01*
X252500Y70000D01*
X282500Y70000D01*
X287500Y65000D01*
X292500Y65000D01*
X302500Y75000D01*
X302500Y192500D01*
X295000Y192500D01*
X282500Y205000D01*
X84842Y-41383D02*
X82500Y-40000D01*
D38*
X252500Y225000D03*
X282500Y205000D03*
D37*
X77500Y-52500D02*
X92500Y-67500D01*
X77500Y-52500D02*
X76229Y-50716D01*
D38*
X92500Y-67500D03*
D37*
X207500Y-215000D02*
X210000Y-215000D01*
X212500Y-217500D01*
X215000Y-217500D01*
X220000Y-137500D02*
X235000Y-122500D01*
X206502Y-212796D02*
X207500Y-215000D01*
X235000Y-122500D02*
X236354Y-121528D01*
X220000Y-137500D02*
X185000Y-102500D01*
X110000Y-102500D01*
X-97500Y255000D02*
X-102500Y260000D01*
X-110000Y260000D01*
X-97500Y255000D02*
X-96380Y254130D01*
X-142500Y-55000D02*
X-147500Y-60000D01*
X-142500Y-55000D02*
X-130000Y-55000D01*
X-147500Y-60000D02*
X-149590Y-62240D01*
X32500Y45000D02*
X50000Y62500D01*
X105000Y62500D02*
X122500Y62500D01*
X105000Y62500D02*
X50000Y62500D01*
X32500Y45000D02*
X31239Y44318D01*
X122500Y62500D02*
X123790Y60795D01*
X122500Y60000D02*
X140000Y42500D01*
X141411Y42319D01*
X123790Y60795D02*
X122500Y60000D01*
X-112500Y-37500D02*
X-130000Y-55000D01*
X-112500Y-37500D02*
X-72500Y-37500D01*
X-35000Y0D01*
X-22500Y0D01*
X-17500Y-5000D01*
X-5000Y-5000D01*
X30000Y30000D01*
X30000Y42500D01*
X31239Y44318D01*
X-155000Y-62500D02*
X-165000Y-72500D01*
X-155000Y-62500D02*
X-150000Y-62500D01*
X-149590Y-62240D01*
D38*
X215000Y-217500D03*
X220000Y-137500D03*
X110000Y-102500D03*
X-110000Y260000D03*
X-130000Y-55000D03*
X-165000Y-72500D03*
X105000Y62500D03*
D37*
X-232500Y-157500D02*
X-245000Y-157500D01*
X-232500Y-157500D02*
X-231940Y-157220D01*
X230000Y-187500D02*
X252500Y-210000D01*
X252500Y-250000D01*
X217500Y-250000D01*
X70000Y-155000D02*
X45000Y-155000D01*
X5000Y-165000D02*
X42500Y-202500D01*
X5000Y-165000D02*
X-32500Y-165000D01*
X-42500Y-155000D01*
X-207500Y-155000D01*
X230000Y-187500D02*
X230057Y-186909D01*
X-207500Y-155000D02*
X-208060Y-157140D01*
X-210000Y-157500D02*
X-230000Y-157500D01*
X-231940Y-157220D01*
X-210000Y-157500D02*
X-208060Y-157140D01*
D38*
X-245000Y-157500D03*
X217500Y-250000D03*
X70000Y-155000D03*
X45000Y-155000D03*
X42500Y-202500D03*
D37*
X217500Y-202500D02*
X227500Y-212500D01*
X235000Y-212500D01*
X217500Y-202500D02*
X216597Y-201701D01*
D38*
X235000Y-212500D03*
D37*
X185000Y72500D02*
X165000Y92500D01*
X185000Y72500D02*
X217500Y72500D01*
X218000Y72000D01*
X-15000Y7500D02*
X-25000Y17500D01*
X-27500Y17500D01*
X-15000Y7500D02*
X-13043Y6917D01*
X-127500Y-237500D02*
X-102500Y-262500D01*
X-100000Y-262500D01*
X-100000Y-264000D01*
X-75000Y60000D02*
X-100000Y85000D01*
X-75000Y60000D02*
X-75000Y42500D01*
X-155000Y42500D01*
X-165000Y52500D01*
X-192500Y52500D01*
X-102000Y86500D02*
X-100000Y85000D01*
X-192500Y52500D02*
X-194000Y52000D01*
X-260000Y227500D02*
X-222500Y265000D01*
X-221780Y266580D01*
X42500Y135000D02*
X62500Y155000D01*
X42500Y135000D02*
X-7500Y135000D01*
X-10000Y137500D01*
X-10000Y138000D01*
D38*
X165000Y92500D03*
X-27500Y17500D03*
X-127500Y-237500D03*
X-260000Y227500D03*
X62500Y155000D03*
D37*
X-210000Y-125000D02*
X-202500Y-132500D01*
X-197500Y-132500D01*
X-195130Y-133900D01*
X202500Y-202500D02*
X207500Y-207500D01*
X202500Y-202500D02*
X127500Y-202500D01*
X100000Y-155000D02*
X72500Y-127500D01*
X-162500Y-127500D01*
X-167500Y-132500D01*
X207500Y-207500D02*
X209867Y-209097D01*
X-167500Y-132500D02*
X-168880Y-134610D01*
X-170000Y-132500D02*
X-195000Y-132500D01*
X-195130Y-133900D01*
X-170000Y-132500D02*
X-168880Y-134610D01*
D38*
X-210000Y-125000D03*
X127500Y-202500D03*
X100000Y-155000D03*
D37*
X-215000Y122500D02*
X-230000Y107500D01*
X-235000Y107500D01*
X-236260Y106820D01*
D38*
X-215000Y122500D03*
D37*
X-222500Y130000D02*
X-235000Y130000D01*
X-235700Y130840D01*
D38*
X-222500Y130000D03*
D37*
X-172500Y120000D02*
X10000Y120000D01*
X15000Y115000D01*
D38*
X-172500Y120000D03*
X15000Y115000D03*
D37*
X-177500Y57500D02*
X-180000Y60000D01*
X-177500Y57500D02*
X-110000Y57500D01*
X-107500Y55000D01*
X-106000Y54000D01*
X-132500Y260000D02*
X-130000Y262500D01*
X-132500Y260000D02*
X-152500Y260000D01*
X-130000Y262500D02*
X-128500Y264450D01*
D38*
X-180000Y60000D03*
X-152500Y260000D03*
D37*
X-272500Y140000D02*
X-265000Y132500D01*
X-255000Y132500D01*
X-272500Y140000D02*
X-274000Y141230D01*
X-255000Y132500D02*
X-254700Y130840D01*
X-255000Y107500D02*
X-290000Y142500D01*
X-292000Y143230D01*
X-255000Y107500D02*
X-255260Y106820D01*
X-240000Y142500D02*
X-255000Y157500D01*
X-240000Y142500D02*
X-225000Y142500D01*
X-162500Y80000D01*
X-135000Y80000D02*
X-132500Y82500D01*
X-135000Y80000D02*
X-162500Y80000D01*
X-163260Y77820D01*
D38*
X-255000Y157500D03*
X-132500Y82500D03*
D37*
X-102000Y105500D02*
X-95000Y112500D01*
X-82500Y112500D01*
D38*
X-82500Y112500D03*
D37*
X-170000Y180000D02*
X-177500Y172500D01*
X-170000Y180000D02*
X-125000Y180000D01*
X-177500Y172500D02*
X-177780Y170080D01*
X-125000Y180000D02*
X-122780Y181580D01*
X-215000Y202500D02*
X-227500Y190000D01*
X-227500Y165000D01*
X-185000Y165000D01*
X-180000Y170000D01*
X-213300Y203300D02*
X-215000Y202500D01*
X-180000Y170000D02*
X-177780Y170080D01*
X-237500Y205000D02*
X-237500Y220000D01*
X-237500Y205000D02*
X-232500Y205000D01*
X-232300Y203300D01*
D38*
X-237500Y220000D03*
D37*
X160000Y170000D02*
X165000Y175000D01*
X182500Y175000D01*
X160000Y170000D02*
X158250Y170000D01*
X182500Y175000D02*
X183850Y176500D01*
X170000Y162500D02*
X160000Y162500D01*
X170000Y162500D02*
X177500Y170000D01*
X183850Y170000D01*
X160000Y162500D02*
X158250Y162000D01*
X160000Y155000D02*
X170000Y155000D01*
X177500Y162500D01*
X182500Y162500D01*
X160000Y155000D02*
X158250Y154000D01*
X182500Y162500D02*
X183850Y163500D01*
X170000Y147500D02*
X160000Y147500D01*
X170000Y147500D02*
X180000Y157500D01*
X182500Y157500D01*
X160000Y147500D02*
X158250Y146000D01*
X182500Y157500D02*
X183850Y157000D01*
X180000Y150000D02*
X160000Y130000D01*
X180000Y150000D02*
X182500Y150000D01*
X160000Y130000D02*
X158250Y130000D01*
X182500Y150000D02*
X183850Y150500D01*
X175000Y122500D02*
X160000Y122500D01*
X175000Y122500D02*
X192500Y140000D01*
X160000Y122500D02*
X158250Y122000D01*
X192500Y140000D02*
X192500Y141850D01*
X177500Y115000D02*
X160000Y115000D01*
X177500Y115000D02*
X197500Y135000D01*
X197500Y140000D01*
X160000Y115000D02*
X158250Y114000D01*
X197500Y140000D02*
X199000Y141850D01*
X177500Y107500D02*
X160000Y107500D01*
X177500Y107500D02*
X205000Y135000D01*
X205000Y140000D01*
X160000Y107500D02*
X158250Y106000D01*
X205000Y140000D02*
X205500Y141850D01*
X220000Y140000D02*
X220000Y120000D01*
X218000Y118250D01*
X220000Y140000D02*
X218500Y141850D01*
X225000Y141850D02*
X225000Y120000D01*
X226000Y118250D01*
X232500Y120000D02*
X232500Y140000D01*
X232500Y120000D02*
X234000Y118250D01*
X232500Y140000D02*
X231500Y141850D01*
X242500Y150000D02*
X242500Y120000D01*
X242000Y118250D01*
X242500Y150000D02*
X240150Y150500D01*
X167500Y257500D02*
X167500Y280000D01*
X177500Y242500D02*
X207500Y212500D01*
X207500Y210000D02*
X207500Y200000D01*
X207500Y210000D02*
X207500Y212500D01*
X207500Y200000D02*
X205000Y200000D01*
X168000Y280000D02*
X167500Y280000D01*
X205000Y200000D02*
X205500Y198150D01*
X205000Y210000D02*
X207500Y210000D01*
D38*
X167500Y257500D03*
X177500Y242500D03*
X205000Y210000D03*
D37*
X175000Y255000D02*
X175000Y280000D01*
X175000Y255000D02*
X170000Y250000D01*
X170000Y207500D01*
X195000Y207500D01*
X197500Y205000D01*
X197500Y200000D01*
X176000Y280000D02*
X175000Y280000D01*
X197500Y200000D02*
X199000Y198150D01*
X120000Y250000D02*
X117500Y252500D01*
X120000Y250000D02*
X170000Y250000D01*
D38*
X117500Y252500D03*
D37*
X112500Y267500D02*
X112500Y280000D01*
X100000Y235000D02*
X132500Y202500D01*
X150000Y202500D02*
X190000Y202500D01*
X150000Y202500D02*
X132500Y202500D01*
X190000Y202500D02*
X192500Y200000D01*
X112500Y280000D02*
X114000Y282000D01*
X192500Y200000D02*
X192500Y198150D01*
X150000Y202500D02*
X150000Y240000D01*
D38*
X112500Y267500D03*
X100000Y235000D03*
X150000Y240000D03*
D37*
X120000Y260000D02*
X120000Y280000D01*
X120000Y260000D02*
X115000Y260000D01*
X100000Y245000D02*
X92500Y237500D01*
X100000Y245000D02*
X115000Y260000D01*
X92500Y237500D02*
X92500Y197500D01*
X175000Y197500D01*
X182500Y190000D01*
X120000Y280000D02*
X122000Y282000D01*
X182500Y190000D02*
X183850Y189500D01*
X132500Y242500D02*
X130000Y245000D01*
X100000Y245000D01*
D38*
X132500Y242500D03*
D37*
X130000Y282000D02*
X130000Y290000D01*
X145000Y290000D01*
X147500Y287500D01*
X185000Y287500D01*
X182500Y182500D02*
X172500Y182500D01*
X182500Y182500D02*
X183850Y183000D01*
D38*
X185000Y287500D03*
X172500Y182500D03*
D37*
X137500Y262500D02*
X137500Y280000D01*
X138000Y282000D01*
X240000Y210000D02*
X240000Y190000D01*
X240150Y189500D01*
D38*
X137500Y262500D03*
X240000Y210000D03*
D37*
X245000Y185000D02*
X242500Y182500D01*
X245000Y185000D02*
X255000Y185000D01*
X267500Y197500D01*
X242500Y182500D02*
X240150Y183000D01*
X267500Y197500D02*
X268000Y198500D01*
X212500Y200000D02*
X212500Y235000D01*
X222500Y235000D01*
X212500Y200000D02*
X212000Y198150D01*
X222500Y235000D02*
X224000Y236500D01*
X145000Y170000D02*
X132500Y182500D01*
X90000Y182500D01*
X75000Y197500D01*
X75000Y242500D01*
X72500Y242500D01*
X145000Y170000D02*
X145750Y170000D01*
X72500Y242500D02*
X72000Y244000D01*
X102500Y162500D02*
X145000Y162500D01*
X102500Y162500D02*
X65000Y200000D01*
X65000Y210000D01*
X145000Y162500D02*
X145750Y162000D01*
X65000Y210000D02*
X64000Y210000D01*
X72500Y155000D02*
X145000Y155000D01*
X72500Y155000D02*
X50000Y177500D01*
X145000Y155000D02*
X145750Y154000D01*
X50000Y177500D02*
X50000Y178000D01*
X135000Y135000D02*
X145000Y145000D01*
X135000Y135000D02*
X50000Y135000D01*
X22500Y107500D01*
X-22500Y107500D01*
X-70000Y60000D01*
X-70000Y17500D01*
X-150000Y17500D01*
X145000Y145000D02*
X145750Y146000D01*
X-150000Y17500D02*
X-150000Y16000D01*
X142500Y127500D02*
X145000Y130000D01*
X142500Y127500D02*
X75000Y127500D01*
X32500Y85000D02*
X-22500Y30000D01*
X-40000Y30000D01*
X-90000Y-20000D01*
X-137500Y-20000D01*
X-147500Y-10000D01*
X145000Y130000D02*
X145750Y130000D01*
X-147500Y-10000D02*
X-148000Y-10000D01*
D38*
X75000Y127500D03*
X32500Y85000D03*
D37*
X85000Y120000D02*
X145000Y120000D01*
X32500Y67500D02*
X-10000Y25000D01*
X-37500Y25000D01*
X-95000Y-32500D01*
X-160000Y-32500D01*
X145000Y120000D02*
X145750Y122000D01*
X-160000Y-32500D02*
X-160000Y-34000D01*
D38*
X85000Y120000D03*
X32500Y67500D03*
D37*
X97500Y112500D02*
X145000Y112500D01*
X97500Y112500D02*
X85000Y100000D01*
X0Y100000D01*
X-2500Y102500D01*
X-17500Y102500D01*
X-45000Y75000D01*
X145000Y112500D02*
X145750Y114000D01*
D38*
X-45000Y75000D03*
D37*
X142500Y102500D02*
X145000Y105000D01*
X142500Y102500D02*
X107500Y102500D01*
X-30000Y-142500D02*
X-22500Y-150000D01*
X-30000Y-142500D02*
X-67500Y-142500D01*
X145000Y105000D02*
X145750Y106000D01*
D38*
X107500Y102500D03*
X-22500Y-150000D03*
X-67500Y-142500D03*
D37*
X192500Y80000D02*
X217500Y105000D01*
X192500Y80000D02*
X190000Y80000D01*
X217500Y105000D02*
X218000Y105750D01*
D38*
X190000Y80000D03*
D37*
X227500Y80000D02*
X227500Y105000D01*
X227500Y80000D02*
X240000Y80000D01*
X227500Y105000D02*
X226000Y105750D01*
X235000Y105000D02*
X235000Y92500D01*
X247500Y92500D01*
X257500Y82500D01*
X265000Y82500D01*
X235000Y105000D02*
X234000Y105750D01*
X265000Y82500D02*
X266000Y82000D01*
X252500Y95000D02*
X242500Y105000D01*
X252500Y95000D02*
X275000Y95000D01*
X290000Y80000D01*
X242500Y105000D02*
X242000Y105750D01*
X290000Y80000D02*
X290000Y78000D01*
X27500Y-162500D02*
X25000Y-165000D01*
X27500Y-162500D02*
X142500Y-162500D01*
X25000Y-165000D02*
X23257Y-165187D01*
D38*
X142500Y-162500D03*
D37*
X70000Y-87500D02*
X70000Y-62500D01*
X70000Y-87500D02*
X125000Y-87500D01*
X70000Y-62500D02*
X67616Y-60049D01*
D38*
X125000Y-87500D03*
D37*
X152500Y297500D02*
X160000Y297500D01*
X152500Y297500D02*
X152000Y296000D01*
X170000Y297500D02*
X175000Y297500D01*
X170000Y297500D02*
X168000Y296000D01*
X175000Y297500D02*
X176000Y296000D01*
X167500Y297500D02*
X160000Y297500D01*
X160000Y296000D01*
X167500Y297500D02*
X168000Y296000D01*
X-275000Y160000D02*
X-290000Y160000D01*
X-275000Y160000D02*
X-274000Y158770D01*
X-290000Y160000D02*
X-292000Y160770D01*
X-257500Y175000D02*
X-255000Y177500D01*
X-257500Y175000D02*
X-272500Y160000D01*
X-255000Y177500D02*
X-245000Y177500D01*
X-272500Y160000D02*
X-274000Y158770D01*
X-245000Y177500D02*
X-242590Y178040D01*
X-257500Y175000D02*
X-260000Y177500D01*
D38*
X-260000Y177500D03*
D37*
X67500Y-297500D02*
X97500Y-327500D01*
X60000Y-137500D02*
X57500Y-135000D01*
X-92500Y-135000D01*
X97500Y-327500D02*
X98000Y-327500D01*
D38*
X67500Y-297500D03*
X60000Y-137500D03*
X-92500Y-135000D03*
D37*
X12500Y-120000D02*
X15000Y-117500D01*
X12500Y-120000D02*
X-67500Y-120000D01*
X15000Y-117500D02*
X15941Y-116050D01*
D38*
X-67500Y-120000D03*
D37*
X-150000Y247500D02*
X-167500Y265000D01*
X-150000Y247500D02*
X-107500Y247500D01*
X-105000Y245000D01*
X-87500Y245000D01*
X-85000Y242500D01*
X-85000Y140000D01*
X-162500Y140000D01*
X-167500Y265000D02*
X-169580Y265980D01*
X-162500Y140000D02*
X-163260Y137820D01*
X-107500Y75000D02*
X-87500Y55000D01*
X-107500Y75000D02*
X-115000Y75000D01*
X-152500Y112500D01*
X-175000Y112500D01*
X-180000Y117500D01*
X-180000Y137500D01*
X-165000Y137500D01*
X-87500Y55000D02*
X-86000Y54000D01*
X-163260Y137820D02*
X-165000Y137500D01*
M02*
