G04 EAGLE Gerber RS-274X export*
G75*
%MOMM*%
%FSLAX34Y34*%
%LPD*%
%IN*%
%IPPOS*%
%AMOC8*
5,1,8,0,0,1.08239X$1,22.5*%
G01*
%ADD10C,0.254000*%


D10*
X-388000Y-8000D02*
X-385620Y-41975D01*
X-380288Y-75614D01*
X-372044Y-108659D01*
X-360951Y-140861D01*
X-347094Y-171973D01*
X-330579Y-201759D01*
X-311530Y-229992D01*
X-290093Y-256458D01*
X-266430Y-280955D01*
X-240723Y-303296D01*
X-213167Y-323311D01*
X-183971Y-340849D01*
X-153357Y-355775D01*
X-121559Y-367976D01*
X-88819Y-377360D01*
X-55385Y-383854D01*
X-21513Y-387410D01*
X-8000Y-388000D01*
X2000Y-388000D01*
X34868Y-385909D01*
X67429Y-380960D01*
X99435Y-373193D01*
X130642Y-362666D01*
X160813Y-349459D01*
X189718Y-333673D01*
X217137Y-315428D01*
X242862Y-294862D01*
X266696Y-272132D01*
X288459Y-247412D01*
X307984Y-220889D01*
X325123Y-192765D01*
X339746Y-163255D01*
X351742Y-132582D01*
X361018Y-100981D01*
X367505Y-68691D01*
X371153Y-35959D01*
X372000Y-8000D01*
X372000Y12000D01*
X369261Y44609D01*
X363690Y76854D01*
X355330Y108492D01*
X344244Y139280D01*
X330517Y168985D01*
X314254Y197381D01*
X295577Y224251D01*
X274630Y249392D01*
X251571Y272610D01*
X226576Y293731D01*
X199836Y312593D01*
X171553Y329053D01*
X141944Y342985D01*
X111233Y354283D01*
X79654Y362862D01*
X47447Y368656D01*
X14858Y371620D01*
X-8000Y372000D01*
X-28000Y372000D01*
X-59776Y370194D01*
X-91274Y365625D01*
X-122253Y358328D01*
X-152479Y348359D01*
X-181721Y335793D01*
X-209757Y320727D01*
X-236372Y303274D01*
X-261366Y283568D01*
X-284546Y261759D01*
X-305738Y238013D01*
X-324780Y212510D01*
X-341526Y185444D01*
X-355849Y157022D01*
X-367641Y127460D01*
X-376812Y96982D01*
X-383291Y65821D01*
X-387030Y34214D01*
X-388000Y12000D01*
X-388000Y-8000D01*
X18000Y-224000D02*
X18008Y-223983D01*
X19039Y-221493D01*
X19848Y-218922D01*
X20431Y-216290D01*
X20782Y-213617D01*
X20899Y-210924D01*
X20780Y-208231D01*
X20428Y-205559D01*
X19844Y-202927D01*
X19032Y-200357D01*
X18000Y-197867D01*
X16755Y-195476D01*
X15306Y-193203D01*
X13664Y-191065D01*
X11842Y-189078D01*
X9854Y-187258D01*
X7715Y-185617D01*
X5442Y-184170D01*
X3050Y-182926D01*
X559Y-181895D01*
X-2012Y-181085D01*
X-4643Y-180502D01*
X-7316Y-180151D01*
X-10009Y-180034D01*
X-12702Y-180153D01*
X-15375Y-180505D01*
X-18006Y-181090D01*
X-20577Y-181901D01*
X-23067Y-182933D01*
X-25457Y-184179D01*
X-27730Y-185628D01*
X-29868Y-187269D01*
X-31855Y-189091D01*
X-33676Y-191079D01*
X-35316Y-193218D01*
X-36764Y-195492D01*
X-38008Y-197883D01*
X-39039Y-200374D01*
X-39848Y-202945D01*
X-40431Y-205577D01*
X-40782Y-208249D01*
X-40899Y-210942D01*
X-40780Y-213635D01*
X-40428Y-216308D01*
X-39844Y-218939D01*
X-39032Y-221510D01*
X-38000Y-224000D01*
X-41264Y-225885D01*
X-45536Y-228801D01*
X-49538Y-232079D01*
X-53239Y-235693D01*
X-56610Y-239616D01*
X-59627Y-243818D01*
X-62267Y-248267D01*
X-64508Y-252929D01*
X-66335Y-257768D01*
X-67733Y-262748D01*
X-68691Y-267832D01*
X-69203Y-272979D01*
X-69264Y-278151D01*
X-68874Y-283309D01*
X-68037Y-288414D01*
X-66757Y-293426D01*
X-65046Y-298307D01*
X-62915Y-303021D01*
X-60382Y-307531D01*
X-57465Y-311803D01*
X-54188Y-315805D01*
X-50574Y-319505D01*
X-46651Y-322877D01*
X-42449Y-325894D01*
X-38000Y-328533D01*
X-33338Y-330775D01*
X-28499Y-332601D01*
X-23518Y-333999D01*
X-18435Y-334958D01*
X-13288Y-335470D01*
X-8115Y-335531D01*
X-2957Y-335141D01*
X2147Y-334303D01*
X7159Y-333024D01*
X12041Y-331312D01*
X16754Y-329182D01*
X21264Y-326649D01*
X25536Y-323732D01*
X29538Y-320454D01*
X33239Y-316840D01*
X36610Y-312917D01*
X39627Y-308715D01*
X42267Y-304267D01*
X44508Y-299605D01*
X46335Y-294765D01*
X47733Y-289785D01*
X48691Y-284702D01*
X49203Y-279554D01*
X49264Y-274382D01*
X48874Y-269224D01*
X48037Y-264120D01*
X46757Y-259108D01*
X45046Y-254226D01*
X42915Y-249512D01*
X40382Y-245002D01*
X37465Y-240730D01*
X34188Y-236729D01*
X30574Y-233028D01*
X26651Y-229656D01*
X22449Y-226639D01*
X18000Y-224000D01*
X210000Y24000D02*
X209983Y24008D01*
X207403Y25076D01*
X204740Y25914D01*
X202015Y26518D01*
X199246Y26881D01*
X196457Y27002D01*
X193668Y26880D01*
X190900Y26515D01*
X188175Y25909D01*
X185512Y25069D01*
X182933Y24000D01*
X180457Y22710D01*
X178103Y21209D01*
X175889Y19509D01*
X173831Y17622D01*
X171945Y15564D01*
X170246Y13348D01*
X168747Y10993D01*
X167459Y8516D01*
X166391Y5937D01*
X165552Y3274D01*
X164949Y548D01*
X164585Y-2220D01*
X164464Y-5009D01*
X164587Y-7799D01*
X164952Y-10566D01*
X165557Y-13292D01*
X166398Y-15954D01*
X167467Y-18533D01*
X168757Y-21009D01*
X170257Y-23364D01*
X171958Y-25578D01*
X173844Y-27636D01*
X175903Y-29521D01*
X178119Y-31220D01*
X180474Y-32720D01*
X182950Y-34008D01*
X185530Y-35076D01*
X188193Y-35914D01*
X190919Y-36518D01*
X193687Y-36881D01*
X196476Y-37002D01*
X199265Y-36880D01*
X202033Y-36515D01*
X204759Y-35909D01*
X207421Y-35069D01*
X210000Y-34000D01*
X211952Y-37381D01*
X214973Y-41806D01*
X218368Y-45950D01*
X222111Y-49783D01*
X226174Y-53275D01*
X230526Y-56400D01*
X235133Y-59133D01*
X239962Y-61455D01*
X244974Y-63347D01*
X250132Y-64795D01*
X255397Y-65787D01*
X260728Y-66317D01*
X266085Y-66381D01*
X271428Y-65977D01*
X276714Y-65109D01*
X281905Y-63784D01*
X286961Y-62012D01*
X291843Y-59805D01*
X296514Y-57181D01*
X300939Y-54161D01*
X305083Y-50766D01*
X308916Y-47023D01*
X312408Y-42960D01*
X315533Y-38608D01*
X318267Y-34000D01*
X320588Y-29172D01*
X322480Y-24159D01*
X323928Y-19001D01*
X324921Y-13736D01*
X325451Y-8405D01*
X325514Y-3048D01*
X325110Y2294D01*
X324243Y7581D01*
X322917Y12772D01*
X321145Y17828D01*
X318938Y22710D01*
X316315Y27381D01*
X313294Y31806D01*
X309899Y35950D01*
X306156Y39783D01*
X302093Y43275D01*
X297741Y46400D01*
X293133Y49133D01*
X288305Y51455D01*
X283293Y53347D01*
X278134Y54795D01*
X272870Y55787D01*
X267539Y56317D01*
X262181Y56381D01*
X256839Y55977D01*
X251552Y55109D01*
X246361Y53784D01*
X241306Y52012D01*
X236424Y49805D01*
X231753Y47181D01*
X227328Y44161D01*
X223183Y40766D01*
X219350Y37023D01*
X215858Y32960D01*
X212734Y28608D01*
X210000Y24000D01*
X-40000Y212000D02*
X-40008Y211982D01*
X-41113Y209314D01*
X-41980Y206559D01*
X-42605Y203739D01*
X-42981Y200876D01*
X-43106Y197990D01*
X-42979Y195105D01*
X-42601Y192242D01*
X-41975Y189422D01*
X-41106Y186668D01*
X-40000Y184000D01*
X-38666Y181439D01*
X-37113Y179003D01*
X-35354Y176712D01*
X-33403Y174584D01*
X-31273Y172633D01*
X-28981Y170876D01*
X-26544Y169325D01*
X-23982Y167992D01*
X-21314Y166887D01*
X-18559Y166020D01*
X-15739Y165395D01*
X-12876Y165019D01*
X-9990Y164894D01*
X-7105Y165021D01*
X-4242Y165399D01*
X-1422Y166025D01*
X1332Y166894D01*
X4000Y168000D01*
X6561Y169334D01*
X8997Y170887D01*
X11288Y172646D01*
X13416Y174597D01*
X15367Y176727D01*
X17124Y179019D01*
X18675Y181456D01*
X20008Y184018D01*
X21113Y186686D01*
X21980Y189441D01*
X22605Y192261D01*
X22981Y195124D01*
X23106Y198010D01*
X22979Y200895D01*
X22601Y203758D01*
X21975Y206578D01*
X21106Y209332D01*
X20000Y212000D01*
X23497Y214019D01*
X28075Y217144D01*
X32362Y220656D01*
X36327Y224528D01*
X39940Y228731D01*
X43172Y233233D01*
X46000Y238000D01*
X48402Y242995D01*
X50359Y248180D01*
X51856Y253516D01*
X52883Y258962D01*
X53432Y264477D01*
X53497Y270019D01*
X53080Y275546D01*
X52182Y281015D01*
X50811Y286385D01*
X48977Y291615D01*
X46695Y296665D01*
X43981Y301497D01*
X40856Y306075D01*
X37344Y310362D01*
X33472Y314327D01*
X29269Y317940D01*
X24767Y321172D01*
X20000Y324000D01*
X15005Y326402D01*
X9820Y328359D01*
X4484Y329856D01*
X-962Y330883D01*
X-6477Y331432D01*
X-12019Y331497D01*
X-17546Y331080D01*
X-23015Y330182D01*
X-28385Y328811D01*
X-33615Y326977D01*
X-38665Y324695D01*
X-43497Y321981D01*
X-48075Y318856D01*
X-52362Y315344D01*
X-56327Y311472D01*
X-59940Y307269D01*
X-63172Y302767D01*
X-66000Y298000D01*
X-68402Y293005D01*
X-70359Y287820D01*
X-71856Y282484D01*
X-72883Y277038D01*
X-73432Y271523D01*
X-73497Y265981D01*
X-73080Y260454D01*
X-72182Y254985D01*
X-70811Y249615D01*
X-68977Y244385D01*
X-66695Y239335D01*
X-63981Y234503D01*
X-60856Y229925D01*
X-57344Y225638D01*
X-53472Y221673D01*
X-49269Y218060D01*
X-44767Y214828D01*
X-40000Y212000D01*
X-226000Y-34000D02*
X-225982Y-34008D01*
X-223314Y-35113D01*
X-220559Y-35980D01*
X-217739Y-36605D01*
X-214876Y-36981D01*
X-211990Y-37106D01*
X-209105Y-36979D01*
X-206242Y-36601D01*
X-203422Y-35975D01*
X-200668Y-35106D01*
X-198000Y-34000D01*
X-195439Y-32666D01*
X-193003Y-31113D01*
X-190712Y-29354D01*
X-188584Y-27403D01*
X-186633Y-25273D01*
X-184876Y-22981D01*
X-183325Y-20544D01*
X-181992Y-17982D01*
X-180887Y-15314D01*
X-180020Y-12559D01*
X-179395Y-9739D01*
X-179019Y-6876D01*
X-178894Y-3990D01*
X-179021Y-1105D01*
X-179399Y1758D01*
X-180025Y4578D01*
X-180894Y7332D01*
X-182000Y10000D01*
X-183334Y12561D01*
X-184887Y14997D01*
X-186646Y17288D01*
X-188597Y19416D01*
X-190727Y21367D01*
X-193019Y23124D01*
X-195456Y24675D01*
X-198018Y26008D01*
X-200686Y27113D01*
X-203441Y27980D01*
X-206261Y28605D01*
X-209124Y28981D01*
X-212010Y29106D01*
X-214895Y28979D01*
X-217758Y28601D01*
X-220578Y27975D01*
X-223332Y27106D01*
X-226000Y26000D01*
X-228019Y29497D01*
X-231144Y34075D01*
X-234656Y38362D01*
X-238528Y42327D01*
X-242731Y45940D01*
X-247233Y49172D01*
X-252000Y52000D01*
X-256995Y54402D01*
X-262180Y56359D01*
X-267516Y57856D01*
X-272962Y58883D01*
X-278477Y59432D01*
X-284019Y59497D01*
X-289546Y59080D01*
X-295015Y58182D01*
X-300385Y56811D01*
X-305615Y54977D01*
X-310665Y52695D01*
X-315497Y49981D01*
X-320075Y46856D01*
X-324362Y43344D01*
X-328327Y39472D01*
X-331940Y35269D01*
X-335172Y30767D01*
X-338000Y26000D01*
X-340402Y21005D01*
X-342359Y15820D01*
X-343856Y10484D01*
X-344883Y5038D01*
X-345432Y-477D01*
X-345497Y-6019D01*
X-345080Y-11546D01*
X-344182Y-17015D01*
X-342811Y-22385D01*
X-340977Y-27615D01*
X-338695Y-32665D01*
X-335981Y-37497D01*
X-332856Y-42075D01*
X-329344Y-46362D01*
X-325472Y-50327D01*
X-321269Y-53940D01*
X-316767Y-57172D01*
X-312000Y-60000D01*
X-307005Y-62402D01*
X-301820Y-64359D01*
X-296484Y-65856D01*
X-291038Y-66883D01*
X-285523Y-67432D01*
X-279981Y-67497D01*
X-274454Y-67080D01*
X-268985Y-66182D01*
X-263615Y-64811D01*
X-258385Y-62977D01*
X-253335Y-60695D01*
X-248503Y-57981D01*
X-243925Y-54856D01*
X-239638Y-51344D01*
X-235673Y-47472D01*
X-232060Y-43269D01*
X-228828Y-38767D01*
X-226000Y-34000D01*
X-361000Y-6281D02*
X-361063Y-6839D01*
X-361188Y-7386D01*
X-361373Y-7916D01*
X-361617Y-8422D01*
X-361916Y-8898D01*
X-362266Y-9337D01*
X-362663Y-9734D01*
X-363102Y-10084D01*
X-363578Y-10383D01*
X-364084Y-10627D01*
X-364614Y-10812D01*
X-365161Y-10937D01*
X-365719Y-11000D01*
X-366281Y-11000D01*
X-366839Y-10937D01*
X-367386Y-10812D01*
X-367916Y-10627D01*
X-368422Y-10383D01*
X-368898Y-10084D01*
X-369337Y-9734D01*
X-369734Y-9337D01*
X-370084Y-8898D01*
X-370383Y-8422D01*
X-370627Y-7916D01*
X-370812Y-7386D01*
X-370937Y-6839D01*
X-371000Y-6281D01*
X-371000Y-5719D01*
X-370937Y-5161D01*
X-370812Y-4614D01*
X-370627Y-4084D01*
X-370383Y-3578D01*
X-370084Y-3102D01*
X-369734Y-2663D01*
X-369337Y-2266D01*
X-368898Y-1916D01*
X-368422Y-1617D01*
X-367916Y-1373D01*
X-367386Y-1188D01*
X-366839Y-1063D01*
X-366281Y-1000D01*
X-365719Y-1000D01*
X-365161Y-1063D01*
X-364614Y-1188D01*
X-364084Y-1373D01*
X-363578Y-1617D01*
X-363102Y-1916D01*
X-362663Y-2266D01*
X-362266Y-2663D01*
X-361916Y-3102D01*
X-361617Y-3578D01*
X-361373Y-4084D01*
X-361188Y-4614D01*
X-361063Y-5161D01*
X-361000Y-5719D01*
X-361000Y-6281D01*
X353000Y-6281D02*
X352937Y-6839D01*
X352812Y-7386D01*
X352627Y-7916D01*
X352383Y-8422D01*
X352084Y-8898D01*
X351734Y-9337D01*
X351337Y-9734D01*
X350898Y-10084D01*
X350422Y-10383D01*
X349916Y-10627D01*
X349386Y-10812D01*
X348839Y-10937D01*
X348281Y-11000D01*
X347719Y-11000D01*
X347161Y-10937D01*
X346614Y-10812D01*
X346084Y-10627D01*
X345578Y-10383D01*
X345102Y-10084D01*
X344663Y-9734D01*
X344266Y-9337D01*
X343916Y-8898D01*
X343617Y-8422D01*
X343373Y-7916D01*
X343188Y-7386D01*
X343063Y-6839D01*
X343000Y-6281D01*
X343000Y-5719D01*
X343063Y-5161D01*
X343188Y-4614D01*
X343373Y-4084D01*
X343617Y-3578D01*
X343916Y-3102D01*
X344266Y-2663D01*
X344663Y-2266D01*
X345102Y-1916D01*
X345578Y-1617D01*
X346084Y-1373D01*
X346614Y-1188D01*
X347161Y-1063D01*
X347719Y-1000D01*
X348281Y-1000D01*
X348839Y-1063D01*
X349386Y-1188D01*
X349916Y-1373D01*
X350422Y-1617D01*
X350898Y-1916D01*
X351337Y-2266D01*
X351734Y-2663D01*
X352084Y-3102D01*
X352383Y-3578D01*
X352627Y-4084D01*
X352812Y-4614D01*
X352937Y-5161D01*
X353000Y-5719D01*
X353000Y-6281D01*
X-5000Y351719D02*
X-5063Y351161D01*
X-5188Y350614D01*
X-5373Y350084D01*
X-5617Y349578D01*
X-5916Y349102D01*
X-6266Y348663D01*
X-6663Y348266D01*
X-7102Y347916D01*
X-7578Y347617D01*
X-8084Y347373D01*
X-8614Y347188D01*
X-9161Y347063D01*
X-9719Y347000D01*
X-10281Y347000D01*
X-10839Y347063D01*
X-11386Y347188D01*
X-11916Y347373D01*
X-12422Y347617D01*
X-12898Y347916D01*
X-13337Y348266D01*
X-13734Y348663D01*
X-14084Y349102D01*
X-14383Y349578D01*
X-14627Y350084D01*
X-14812Y350614D01*
X-14937Y351161D01*
X-15000Y351719D01*
X-15000Y352281D01*
X-14937Y352839D01*
X-14812Y353386D01*
X-14627Y353916D01*
X-14383Y354422D01*
X-14084Y354898D01*
X-13734Y355337D01*
X-13337Y355734D01*
X-12898Y356084D01*
X-12422Y356383D01*
X-11916Y356627D01*
X-11386Y356812D01*
X-10839Y356937D01*
X-10281Y357000D01*
X-9719Y357000D01*
X-9161Y356937D01*
X-8614Y356812D01*
X-8084Y356627D01*
X-7578Y356383D01*
X-7102Y356084D01*
X-6663Y355734D01*
X-6266Y355337D01*
X-5916Y354898D01*
X-5617Y354422D01*
X-5373Y353916D01*
X-5188Y353386D01*
X-5063Y352839D01*
X-5000Y352281D01*
X-5000Y351719D01*
X-5000Y-362281D02*
X-5063Y-362839D01*
X-5188Y-363386D01*
X-5373Y-363916D01*
X-5617Y-364422D01*
X-5916Y-364898D01*
X-6266Y-365337D01*
X-6663Y-365734D01*
X-7102Y-366084D01*
X-7578Y-366383D01*
X-8084Y-366627D01*
X-8614Y-366812D01*
X-9161Y-366937D01*
X-9719Y-367000D01*
X-10281Y-367000D01*
X-10839Y-366937D01*
X-11386Y-366812D01*
X-11916Y-366627D01*
X-12422Y-366383D01*
X-12898Y-366084D01*
X-13337Y-365734D01*
X-13734Y-365337D01*
X-14084Y-364898D01*
X-14383Y-364422D01*
X-14627Y-363916D01*
X-14812Y-363386D01*
X-14937Y-362839D01*
X-15000Y-362281D01*
X-15000Y-361719D01*
X-14937Y-361161D01*
X-14812Y-360614D01*
X-14627Y-360084D01*
X-14383Y-359578D01*
X-14084Y-359102D01*
X-13734Y-358663D01*
X-13337Y-358266D01*
X-12898Y-357916D01*
X-12422Y-357617D01*
X-11916Y-357373D01*
X-11386Y-357188D01*
X-10839Y-357063D01*
X-10281Y-357000D01*
X-9719Y-357000D01*
X-9161Y-357063D01*
X-8614Y-357188D01*
X-8084Y-357373D01*
X-7578Y-357617D01*
X-7102Y-357916D01*
X-6663Y-358266D01*
X-6266Y-358663D01*
X-5916Y-359102D01*
X-5617Y-359578D01*
X-5373Y-360084D01*
X-5188Y-360614D01*
X-5063Y-361161D01*
X-5000Y-361719D01*
X-5000Y-362281D01*
X-90540Y-2801D02*
X-90603Y-3359D01*
X-90728Y-3906D01*
X-90913Y-4436D01*
X-91157Y-4942D01*
X-91456Y-5418D01*
X-91806Y-5857D01*
X-92203Y-6254D01*
X-92642Y-6604D01*
X-93118Y-6903D01*
X-93624Y-7147D01*
X-94154Y-7332D01*
X-94701Y-7457D01*
X-95259Y-7520D01*
X-95821Y-7520D01*
X-96379Y-7457D01*
X-96926Y-7332D01*
X-97456Y-7147D01*
X-97962Y-6903D01*
X-98438Y-6604D01*
X-98877Y-6254D01*
X-99274Y-5857D01*
X-99624Y-5418D01*
X-99923Y-4942D01*
X-100167Y-4436D01*
X-100352Y-3906D01*
X-100477Y-3359D01*
X-100540Y-2801D01*
X-100540Y-2239D01*
X-100477Y-1681D01*
X-100352Y-1134D01*
X-100167Y-604D01*
X-99923Y-98D01*
X-99624Y378D01*
X-99274Y817D01*
X-98877Y1214D01*
X-98438Y1564D01*
X-97962Y1863D01*
X-97456Y2107D01*
X-96926Y2292D01*
X-96379Y2417D01*
X-95821Y2480D01*
X-95259Y2480D01*
X-94701Y2417D01*
X-94154Y2292D01*
X-93624Y2107D01*
X-93118Y1863D01*
X-92642Y1564D01*
X-92203Y1214D01*
X-91806Y817D01*
X-91456Y378D01*
X-91157Y-98D01*
X-90913Y-604D01*
X-90728Y-1134D01*
X-90603Y-1681D01*
X-90540Y-2239D01*
X-90540Y-2801D01*
X83460Y-2801D02*
X83397Y-3359D01*
X83272Y-3906D01*
X83087Y-4436D01*
X82843Y-4942D01*
X82544Y-5418D01*
X82194Y-5857D01*
X81797Y-6254D01*
X81358Y-6604D01*
X80882Y-6903D01*
X80376Y-7147D01*
X79846Y-7332D01*
X79299Y-7457D01*
X78741Y-7520D01*
X78179Y-7520D01*
X77621Y-7457D01*
X77074Y-7332D01*
X76544Y-7147D01*
X76038Y-6903D01*
X75562Y-6604D01*
X75123Y-6254D01*
X74726Y-5857D01*
X74376Y-5418D01*
X74077Y-4942D01*
X73833Y-4436D01*
X73648Y-3906D01*
X73523Y-3359D01*
X73460Y-2801D01*
X73460Y-2239D01*
X73523Y-1681D01*
X73648Y-1134D01*
X73833Y-604D01*
X74077Y-98D01*
X74376Y378D01*
X74726Y817D01*
X75123Y1214D01*
X75562Y1564D01*
X76038Y1863D01*
X76544Y2107D01*
X77074Y2292D01*
X77621Y2417D01*
X78179Y2480D01*
X78741Y2480D01*
X79299Y2417D01*
X79846Y2292D01*
X80376Y2107D01*
X80882Y1863D01*
X81358Y1564D01*
X81797Y1214D01*
X82194Y817D01*
X82544Y378D01*
X82843Y-98D01*
X83087Y-604D01*
X83272Y-1134D01*
X83397Y-1681D01*
X83460Y-2239D01*
X83460Y-2801D01*
X-4540Y85199D02*
X-4603Y84641D01*
X-4728Y84094D01*
X-4913Y83564D01*
X-5157Y83058D01*
X-5456Y82582D01*
X-5806Y82143D01*
X-6203Y81746D01*
X-6642Y81396D01*
X-7118Y81097D01*
X-7624Y80853D01*
X-8154Y80668D01*
X-8701Y80543D01*
X-9259Y80480D01*
X-9821Y80480D01*
X-10379Y80543D01*
X-10926Y80668D01*
X-11456Y80853D01*
X-11962Y81097D01*
X-12438Y81396D01*
X-12877Y81746D01*
X-13274Y82143D01*
X-13624Y82582D01*
X-13923Y83058D01*
X-14167Y83564D01*
X-14352Y84094D01*
X-14477Y84641D01*
X-14540Y85199D01*
X-14540Y85761D01*
X-14477Y86319D01*
X-14352Y86866D01*
X-14167Y87396D01*
X-13923Y87902D01*
X-13624Y88378D01*
X-13274Y88817D01*
X-12877Y89214D01*
X-12438Y89564D01*
X-11962Y89863D01*
X-11456Y90107D01*
X-10926Y90292D01*
X-10379Y90417D01*
X-9821Y90480D01*
X-9259Y90480D01*
X-8701Y90417D01*
X-8154Y90292D01*
X-7624Y90107D01*
X-7118Y89863D01*
X-6642Y89564D01*
X-6203Y89214D01*
X-5806Y88817D01*
X-5456Y88378D01*
X-5157Y87902D01*
X-4913Y87396D01*
X-4728Y86866D01*
X-4603Y86319D01*
X-4540Y85761D01*
X-4540Y85199D01*
X-7000Y-90281D02*
X-7063Y-90839D01*
X-7188Y-91386D01*
X-7373Y-91916D01*
X-7617Y-92422D01*
X-7916Y-92898D01*
X-8266Y-93337D01*
X-8663Y-93734D01*
X-9102Y-94084D01*
X-9578Y-94383D01*
X-10084Y-94627D01*
X-10614Y-94812D01*
X-11161Y-94937D01*
X-11719Y-95000D01*
X-12281Y-95000D01*
X-12839Y-94937D01*
X-13386Y-94812D01*
X-13916Y-94627D01*
X-14422Y-94383D01*
X-14898Y-94084D01*
X-15337Y-93734D01*
X-15734Y-93337D01*
X-16084Y-92898D01*
X-16383Y-92422D01*
X-16627Y-91916D01*
X-16812Y-91386D01*
X-16937Y-90839D01*
X-17000Y-90281D01*
X-17000Y-89719D01*
X-16937Y-89161D01*
X-16812Y-88614D01*
X-16627Y-88084D01*
X-16383Y-87578D01*
X-16084Y-87102D01*
X-15734Y-86663D01*
X-15337Y-86266D01*
X-14898Y-85916D01*
X-14422Y-85617D01*
X-13916Y-85373D01*
X-13386Y-85188D01*
X-12839Y-85063D01*
X-12281Y-85000D01*
X-11719Y-85000D01*
X-11161Y-85063D01*
X-10614Y-85188D01*
X-10084Y-85373D01*
X-9578Y-85617D01*
X-9102Y-85916D01*
X-8663Y-86266D01*
X-8266Y-86663D01*
X-7916Y-87102D01*
X-7617Y-87578D01*
X-7373Y-88084D01*
X-7188Y-88614D01*
X-7063Y-89161D01*
X-7000Y-89719D01*
X-7000Y-90281D01*
M02*
