G04 EAGLE Gerber RS-274X export*
G75*
%MOMM*%
%FSLAX34Y34*%
%LPD*%
%INSoldermask Top*%
%IPPOS*%
%AMOC8*
5,1,8,0,0,1.08239X$1,22.5*%
G01*
%ADD10C,1.203200*%
%ADD11R,1.703200X1.503200*%
%ADD12R,2.353200X2.003200*%
%ADD13R,2.003200X2.353200*%
%ADD14R,1.803200X2.803200*%
%ADD15R,0.503200X1.003200*%
%ADD16R,1.150000X2.200000*%
%ADD17R,1.300000X3.050000*%
%ADD18R,3.453200X2.703200*%
%ADD19R,1.503200X1.703200*%
%ADD20R,1.503200X1.803200*%
%ADD21R,1.503200X1.503200*%
%ADD22R,1.503200X2.203200*%
%ADD23R,2.153200X2.703200*%
%ADD24C,1.727200*%
%ADD25P,1.869504X8X67.900000*%
%ADD26C,0.282525*%
%ADD27R,4.303200X4.303200*%
%ADD28R,0.853200X0.703200*%
%ADD29R,0.703200X0.853200*%
%ADD30R,1.653200X1.063200*%
%ADD31R,3.703200X3.703200*%
%ADD32R,0.600000X1.000000*%
%ADD33C,0.505344*%
%ADD34R,1.803200X1.503200*%
%ADD35P,1.951982X8X22.500000*%
%ADD36C,1.411200*%
%ADD37C,1.611200*%
%ADD38C,0.959600*%


D10*
X-366000Y-6000D03*
X348000Y-6000D03*
X-10000Y352000D03*
X-10000Y-362000D03*
X-95540Y-2520D03*
X78460Y-2520D03*
X-9540Y85480D03*
X-12000Y-90000D03*
D11*
X-96380Y254130D03*
X-96380Y235130D03*
D12*
X-242590Y178040D03*
X-210090Y178040D03*
D13*
X-128500Y264450D03*
X-128500Y231950D03*
D14*
X-169580Y265980D03*
X-169580Y229980D03*
X-221780Y266580D03*
X-221780Y230580D03*
D15*
G36*
X168159Y-262386D02*
X164772Y-266108D01*
X157353Y-259358D01*
X160740Y-255636D01*
X168159Y-262386D01*
G37*
G36*
X171524Y-258687D02*
X168137Y-262409D01*
X160718Y-255659D01*
X164105Y-251937D01*
X171524Y-258687D01*
G37*
G36*
X174889Y-254989D02*
X171502Y-258711D01*
X164083Y-251961D01*
X167470Y-248239D01*
X174889Y-254989D01*
G37*
G36*
X178254Y-251291D02*
X174867Y-255013D01*
X167448Y-248263D01*
X170835Y-244541D01*
X178254Y-251291D01*
G37*
G36*
X181619Y-247593D02*
X178232Y-251315D01*
X170813Y-244565D01*
X174200Y-240843D01*
X181619Y-247593D01*
G37*
G36*
X184984Y-243895D02*
X181597Y-247617D01*
X174178Y-240867D01*
X177565Y-237145D01*
X184984Y-243895D01*
G37*
G36*
X188349Y-240197D02*
X184962Y-243919D01*
X177543Y-237169D01*
X180930Y-233447D01*
X188349Y-240197D01*
G37*
G36*
X191714Y-236499D02*
X188327Y-240221D01*
X180908Y-233471D01*
X184295Y-229749D01*
X191714Y-236499D01*
G37*
G36*
X195079Y-232800D02*
X191692Y-236522D01*
X184273Y-229772D01*
X187660Y-226050D01*
X195079Y-232800D01*
G37*
G36*
X198445Y-229102D02*
X195058Y-232824D01*
X187639Y-226074D01*
X191026Y-222352D01*
X198445Y-229102D01*
G37*
G36*
X201810Y-225404D02*
X198423Y-229126D01*
X191004Y-222376D01*
X194391Y-218654D01*
X201810Y-225404D01*
G37*
G36*
X205175Y-221706D02*
X201788Y-225428D01*
X194369Y-218678D01*
X197756Y-214956D01*
X205175Y-221706D01*
G37*
G36*
X208540Y-218008D02*
X205153Y-221730D01*
X197734Y-214980D01*
X201121Y-211258D01*
X208540Y-218008D01*
G37*
G36*
X211905Y-214310D02*
X208518Y-218032D01*
X201099Y-211282D01*
X204486Y-207560D01*
X211905Y-214310D01*
G37*
G36*
X215270Y-210611D02*
X211883Y-214333D01*
X204464Y-207583D01*
X207851Y-203861D01*
X215270Y-210611D01*
G37*
G36*
X218635Y-206913D02*
X215248Y-210635D01*
X207829Y-203885D01*
X211216Y-200163D01*
X218635Y-206913D01*
G37*
G36*
X222000Y-203215D02*
X218613Y-206937D01*
X211194Y-200187D01*
X214581Y-196465D01*
X222000Y-203215D01*
G37*
G36*
X225365Y-199517D02*
X221978Y-203239D01*
X214559Y-196489D01*
X217946Y-192767D01*
X225365Y-199517D01*
G37*
G36*
X228730Y-195819D02*
X225343Y-199541D01*
X217924Y-192791D01*
X221311Y-189069D01*
X228730Y-195819D01*
G37*
G36*
X232095Y-192121D02*
X228708Y-195843D01*
X221289Y-189093D01*
X224676Y-185371D01*
X232095Y-192121D01*
G37*
G36*
X235460Y-188423D02*
X232073Y-192145D01*
X224654Y-185395D01*
X228041Y-181673D01*
X235460Y-188423D01*
G37*
G36*
X238825Y-184724D02*
X235438Y-188446D01*
X228019Y-181696D01*
X231406Y-177974D01*
X238825Y-184724D01*
G37*
G36*
X242190Y-181026D02*
X238803Y-184748D01*
X231384Y-177998D01*
X234771Y-174276D01*
X242190Y-181026D01*
G37*
G36*
X245555Y-177328D02*
X242168Y-181050D01*
X234749Y-174300D01*
X238136Y-170578D01*
X245555Y-177328D01*
G37*
G36*
X248920Y-173630D02*
X245533Y-177352D01*
X238114Y-170602D01*
X241501Y-166880D01*
X248920Y-173630D01*
G37*
G36*
X252286Y-169932D02*
X248899Y-173654D01*
X241480Y-166904D01*
X244867Y-163182D01*
X252286Y-169932D01*
G37*
D16*
G36*
X267407Y-153292D02*
X275146Y-144786D01*
X291417Y-159592D01*
X283678Y-168098D01*
X267407Y-153292D01*
G37*
D17*
G36*
X258994Y-162538D02*
X267743Y-152922D01*
X290300Y-173448D01*
X281551Y-183064D01*
X258994Y-162538D01*
G37*
D16*
G36*
X165900Y-297533D02*
X158161Y-306039D01*
X141890Y-291233D01*
X149629Y-282727D01*
X165900Y-297533D01*
G37*
D17*
G36*
X180599Y-294008D02*
X171850Y-303624D01*
X149293Y-283098D01*
X158042Y-273482D01*
X180599Y-294008D01*
G37*
D18*
X-163260Y137820D03*
X-163260Y77820D03*
D19*
G36*
X29979Y33030D02*
X19882Y44166D01*
X32499Y55606D01*
X42596Y44470D01*
X29979Y33030D01*
G37*
G36*
X42741Y18954D02*
X32644Y30090D01*
X45261Y41530D01*
X55358Y30394D01*
X42741Y18954D01*
G37*
D20*
X-235700Y130840D03*
X-254700Y130840D03*
X-236260Y106820D03*
X-255260Y106820D03*
D21*
X-177780Y193080D03*
X-177780Y170080D03*
D22*
X-122780Y181580D03*
D20*
X-213300Y203300D03*
X-232300Y203300D03*
D19*
G36*
X121150Y46744D02*
X110121Y36530D01*
X98550Y49026D01*
X109579Y59240D01*
X121150Y46744D01*
G37*
G36*
X135090Y59654D02*
X124061Y49440D01*
X112490Y61936D01*
X123519Y72150D01*
X135090Y59654D01*
G37*
G36*
X138942Y28238D02*
X128039Y17891D01*
X116316Y30244D01*
X127219Y40591D01*
X138942Y28238D01*
G37*
G36*
X152724Y41316D02*
X141821Y30969D01*
X130098Y43322D01*
X141001Y53669D01*
X152724Y41316D01*
G37*
D23*
X-149590Y-62240D03*
X-180090Y-62240D03*
D11*
X-168880Y-134610D03*
X-168880Y-115610D03*
X-195130Y-133900D03*
X-195130Y-114900D03*
X-208060Y-157140D03*
X-208060Y-176140D03*
X-231940Y-157220D03*
X-231940Y-176220D03*
D24*
X-12792Y-29003D03*
D25*
X5043Y-10917D03*
X22877Y7168D03*
X-30877Y-11168D03*
X-13043Y6917D03*
X4792Y25003D03*
D11*
X224000Y236500D03*
X224000Y255500D03*
D26*
X193704Y146954D02*
X193704Y136746D01*
X191296Y136746D01*
X191296Y146954D01*
X193704Y146954D01*
X193704Y139430D02*
X191296Y139430D01*
X191296Y142114D02*
X193704Y142114D01*
X193704Y144798D02*
X191296Y144798D01*
X200204Y146954D02*
X200204Y136746D01*
X197796Y136746D01*
X197796Y146954D01*
X200204Y146954D01*
X200204Y139430D02*
X197796Y139430D01*
X197796Y142114D02*
X200204Y142114D01*
X200204Y144798D02*
X197796Y144798D01*
X206704Y146954D02*
X206704Y136746D01*
X204296Y136746D01*
X204296Y146954D01*
X206704Y146954D01*
X206704Y139430D02*
X204296Y139430D01*
X204296Y142114D02*
X206704Y142114D01*
X206704Y144798D02*
X204296Y144798D01*
X213204Y146954D02*
X213204Y136746D01*
X210796Y136746D01*
X210796Y146954D01*
X213204Y146954D01*
X213204Y139430D02*
X210796Y139430D01*
X210796Y142114D02*
X213204Y142114D01*
X213204Y144798D02*
X210796Y144798D01*
X219704Y146954D02*
X219704Y136746D01*
X217296Y136746D01*
X217296Y146954D01*
X219704Y146954D01*
X219704Y139430D02*
X217296Y139430D01*
X217296Y142114D02*
X219704Y142114D01*
X219704Y144798D02*
X217296Y144798D01*
X226204Y146954D02*
X226204Y136746D01*
X223796Y136746D01*
X223796Y146954D01*
X226204Y146954D01*
X226204Y139430D02*
X223796Y139430D01*
X223796Y142114D02*
X226204Y142114D01*
X226204Y144798D02*
X223796Y144798D01*
X232704Y146954D02*
X232704Y136746D01*
X230296Y136746D01*
X230296Y146954D01*
X232704Y146954D01*
X232704Y139430D02*
X230296Y139430D01*
X230296Y142114D02*
X232704Y142114D01*
X232704Y144798D02*
X230296Y144798D01*
X232704Y193046D02*
X232704Y203254D01*
X232704Y193046D02*
X230296Y193046D01*
X230296Y203254D01*
X232704Y203254D01*
X232704Y195730D02*
X230296Y195730D01*
X230296Y198414D02*
X232704Y198414D01*
X232704Y201098D02*
X230296Y201098D01*
X226204Y203254D02*
X226204Y193046D01*
X223796Y193046D01*
X223796Y203254D01*
X226204Y203254D01*
X226204Y195730D02*
X223796Y195730D01*
X223796Y198414D02*
X226204Y198414D01*
X226204Y201098D02*
X223796Y201098D01*
X219704Y203254D02*
X219704Y193046D01*
X217296Y193046D01*
X217296Y203254D01*
X219704Y203254D01*
X219704Y195730D02*
X217296Y195730D01*
X217296Y198414D02*
X219704Y198414D01*
X219704Y201098D02*
X217296Y201098D01*
X213204Y203254D02*
X213204Y193046D01*
X210796Y193046D01*
X210796Y203254D01*
X213204Y203254D01*
X213204Y195730D02*
X210796Y195730D01*
X210796Y198414D02*
X213204Y198414D01*
X213204Y201098D02*
X210796Y201098D01*
X206704Y203254D02*
X206704Y193046D01*
X204296Y193046D01*
X204296Y203254D01*
X206704Y203254D01*
X206704Y195730D02*
X204296Y195730D01*
X204296Y198414D02*
X206704Y198414D01*
X206704Y201098D02*
X204296Y201098D01*
X200204Y203254D02*
X200204Y193046D01*
X197796Y193046D01*
X197796Y203254D01*
X200204Y203254D01*
X200204Y195730D02*
X197796Y195730D01*
X197796Y198414D02*
X200204Y198414D01*
X200204Y201098D02*
X197796Y201098D01*
X193704Y203254D02*
X193704Y193046D01*
X191296Y193046D01*
X191296Y203254D01*
X193704Y203254D01*
X193704Y195730D02*
X191296Y195730D01*
X191296Y198414D02*
X193704Y198414D01*
X193704Y201098D02*
X191296Y201098D01*
X188954Y188296D02*
X178746Y188296D01*
X178746Y190704D01*
X188954Y190704D01*
X188954Y188296D01*
X188954Y181796D02*
X178746Y181796D01*
X178746Y184204D01*
X188954Y184204D01*
X188954Y181796D01*
X188954Y175296D02*
X178746Y175296D01*
X178746Y177704D01*
X188954Y177704D01*
X188954Y175296D01*
X188954Y168796D02*
X178746Y168796D01*
X178746Y171204D01*
X188954Y171204D01*
X188954Y168796D01*
X188954Y162296D02*
X178746Y162296D01*
X178746Y164704D01*
X188954Y164704D01*
X188954Y162296D01*
X188954Y155796D02*
X178746Y155796D01*
X178746Y158204D01*
X188954Y158204D01*
X188954Y155796D01*
X188954Y149296D02*
X178746Y149296D01*
X178746Y151704D01*
X188954Y151704D01*
X188954Y149296D01*
X235046Y149296D02*
X245254Y149296D01*
X235046Y149296D02*
X235046Y151704D01*
X245254Y151704D01*
X245254Y149296D01*
X245254Y155796D02*
X235046Y155796D01*
X235046Y158204D01*
X245254Y158204D01*
X245254Y155796D01*
X245254Y162296D02*
X235046Y162296D01*
X235046Y164704D01*
X245254Y164704D01*
X245254Y162296D01*
X245254Y168796D02*
X235046Y168796D01*
X235046Y171204D01*
X245254Y171204D01*
X245254Y168796D01*
X245254Y175296D02*
X235046Y175296D01*
X235046Y177704D01*
X245254Y177704D01*
X245254Y175296D01*
X245254Y181796D02*
X235046Y181796D01*
X235046Y184204D01*
X245254Y184204D01*
X245254Y181796D01*
X245254Y188296D02*
X235046Y188296D01*
X235046Y190704D01*
X245254Y190704D01*
X245254Y188296D01*
D27*
X212000Y170000D03*
D11*
X268000Y198500D03*
X268000Y217500D03*
D28*
X158250Y146000D03*
X158250Y154000D03*
X158250Y162000D03*
X158250Y170000D03*
X145750Y170000D03*
X145750Y162000D03*
X145750Y154000D03*
X145750Y146000D03*
X158250Y106000D03*
X158250Y114000D03*
X158250Y122000D03*
X158250Y130000D03*
X145750Y130000D03*
X145750Y122000D03*
X145750Y114000D03*
X145750Y106000D03*
D29*
X242000Y118250D03*
X234000Y118250D03*
X226000Y118250D03*
X218000Y118250D03*
X218000Y105750D03*
X226000Y105750D03*
X234000Y105750D03*
X242000Y105750D03*
D30*
G36*
X114841Y-20645D02*
X126051Y-8497D01*
X133865Y-15707D01*
X122655Y-27855D01*
X114841Y-20645D01*
G37*
G36*
X124175Y-29258D02*
X135385Y-17110D01*
X143199Y-24320D01*
X131989Y-36468D01*
X124175Y-29258D01*
G37*
G36*
X133508Y-37870D02*
X144718Y-25722D01*
X152532Y-32932D01*
X141322Y-45080D01*
X133508Y-37870D01*
G37*
G36*
X142842Y-46483D02*
X154052Y-34335D01*
X161866Y-41545D01*
X150656Y-53693D01*
X142842Y-46483D01*
G37*
G36*
X152175Y-55096D02*
X163385Y-42948D01*
X171199Y-50158D01*
X159989Y-62306D01*
X152175Y-55096D01*
G37*
G36*
X161508Y-63708D02*
X172718Y-51560D01*
X180532Y-58770D01*
X169322Y-70918D01*
X161508Y-63708D01*
G37*
G36*
X170842Y-72321D02*
X182052Y-60173D01*
X189866Y-67383D01*
X178656Y-79531D01*
X170842Y-72321D01*
G37*
G36*
X180175Y-80934D02*
X191385Y-68786D01*
X199199Y-75996D01*
X187989Y-88144D01*
X180175Y-80934D01*
G37*
G36*
X189509Y-89546D02*
X200719Y-77398D01*
X208533Y-84608D01*
X197323Y-96756D01*
X189509Y-89546D01*
G37*
G36*
X198842Y-98159D02*
X210052Y-86011D01*
X217866Y-93221D01*
X206656Y-105369D01*
X198842Y-98159D01*
G37*
G36*
X208176Y-106771D02*
X219386Y-94623D01*
X227200Y-101833D01*
X215990Y-113981D01*
X208176Y-106771D01*
G37*
G36*
X217509Y-115384D02*
X228719Y-103236D01*
X236533Y-110446D01*
X225323Y-122594D01*
X217509Y-115384D01*
G37*
G36*
X226842Y-123997D02*
X238052Y-111849D01*
X245866Y-119059D01*
X234656Y-131207D01*
X226842Y-123997D01*
G37*
G36*
X236176Y-132609D02*
X247386Y-120461D01*
X255200Y-127671D01*
X243990Y-139819D01*
X236176Y-132609D01*
G37*
G36*
X-4922Y-150431D02*
X6288Y-138283D01*
X14102Y-145493D01*
X2892Y-157641D01*
X-4922Y-150431D01*
G37*
G36*
X4412Y-159044D02*
X15622Y-146896D01*
X23436Y-154106D01*
X12226Y-166254D01*
X4412Y-159044D01*
G37*
G36*
X13745Y-167656D02*
X24955Y-155508D01*
X32769Y-162718D01*
X21559Y-174866D01*
X13745Y-167656D01*
G37*
G36*
X23079Y-176269D02*
X34289Y-164121D01*
X42103Y-171331D01*
X30893Y-183479D01*
X23079Y-176269D01*
G37*
G36*
X32412Y-184882D02*
X43622Y-172734D01*
X51436Y-179944D01*
X40226Y-192092D01*
X32412Y-184882D01*
G37*
G36*
X41745Y-193494D02*
X52955Y-181346D01*
X60769Y-188556D01*
X49559Y-200704D01*
X41745Y-193494D01*
G37*
G36*
X51079Y-202107D02*
X62289Y-189959D01*
X70103Y-197169D01*
X58893Y-209317D01*
X51079Y-202107D01*
G37*
G36*
X60412Y-210719D02*
X71622Y-198571D01*
X79436Y-205781D01*
X68226Y-217929D01*
X60412Y-210719D01*
G37*
G36*
X69746Y-219332D02*
X80956Y-207184D01*
X88770Y-214394D01*
X77560Y-226542D01*
X69746Y-219332D01*
G37*
G36*
X79079Y-227945D02*
X90289Y-215797D01*
X98103Y-223007D01*
X86893Y-235155D01*
X79079Y-227945D01*
G37*
G36*
X88413Y-236557D02*
X99623Y-224409D01*
X107437Y-231619D01*
X96227Y-243767D01*
X88413Y-236557D01*
G37*
G36*
X97746Y-245170D02*
X108956Y-233022D01*
X116770Y-240232D01*
X105560Y-252380D01*
X97746Y-245170D01*
G37*
G36*
X107079Y-253783D02*
X118289Y-241635D01*
X126103Y-248845D01*
X114893Y-260993D01*
X107079Y-253783D01*
G37*
G36*
X116413Y-262395D02*
X127623Y-250247D01*
X135437Y-257457D01*
X124227Y-269605D01*
X116413Y-262395D01*
G37*
G36*
X52860Y-88228D02*
X40712Y-77018D01*
X47922Y-69204D01*
X60070Y-80414D01*
X52860Y-88228D01*
G37*
G36*
X44248Y-97562D02*
X32100Y-86352D01*
X39310Y-78538D01*
X51458Y-89748D01*
X44248Y-97562D01*
G37*
G36*
X35635Y-106895D02*
X23487Y-95685D01*
X30697Y-87871D01*
X42845Y-99081D01*
X35635Y-106895D01*
G37*
G36*
X27022Y-116228D02*
X14874Y-105018D01*
X22084Y-97204D01*
X34232Y-108414D01*
X27022Y-116228D01*
G37*
G36*
X18410Y-125562D02*
X6262Y-114352D01*
X13472Y-106538D01*
X25620Y-117748D01*
X18410Y-125562D01*
G37*
G36*
X61473Y-78895D02*
X49325Y-67685D01*
X56535Y-59871D01*
X68683Y-71081D01*
X61473Y-78895D01*
G37*
G36*
X70085Y-69561D02*
X57937Y-58351D01*
X65147Y-50537D01*
X77295Y-61747D01*
X70085Y-69561D01*
G37*
G36*
X78698Y-60228D02*
X66550Y-49018D01*
X73760Y-41204D01*
X85908Y-52414D01*
X78698Y-60228D01*
G37*
G36*
X87311Y-50895D02*
X75163Y-39685D01*
X82373Y-31871D01*
X94521Y-43081D01*
X87311Y-50895D01*
G37*
G36*
X95923Y-41561D02*
X83775Y-30351D01*
X90985Y-22537D01*
X103133Y-33747D01*
X95923Y-41561D01*
G37*
D31*
G36*
X113396Y-133542D02*
X138510Y-106328D01*
X165724Y-131442D01*
X140610Y-158656D01*
X113396Y-133542D01*
G37*
D32*
X138000Y298000D03*
X130000Y298000D03*
X122000Y298000D03*
X114000Y298000D03*
X114000Y282000D03*
X122000Y282000D03*
X130000Y282000D03*
X138000Y282000D03*
X176000Y296000D03*
X168000Y296000D03*
X160000Y296000D03*
X152000Y296000D03*
X152000Y280000D03*
X160000Y280000D03*
X168000Y280000D03*
X176000Y280000D03*
D33*
X-270510Y144720D02*
X-277490Y144720D01*
X-270510Y144720D02*
X-270510Y137740D01*
X-277490Y137740D01*
X-277490Y144720D01*
X-277490Y142540D02*
X-270510Y142540D01*
X-270510Y162260D02*
X-277490Y162260D01*
X-270510Y162260D02*
X-270510Y155280D01*
X-277490Y155280D01*
X-277490Y162260D01*
X-277490Y160080D02*
X-270510Y160080D01*
X-288510Y146720D02*
X-295490Y146720D01*
X-288510Y146720D02*
X-288510Y139740D01*
X-295490Y139740D01*
X-295490Y146720D01*
X-295490Y144540D02*
X-288510Y144540D01*
X-288510Y164260D02*
X-295490Y164260D01*
X-288510Y164260D02*
X-288510Y157280D01*
X-295490Y157280D01*
X-295490Y164260D01*
X-295490Y162080D02*
X-288510Y162080D01*
D34*
X-102000Y86500D03*
X-102000Y105500D03*
D35*
X72000Y244000D03*
X64000Y210000D03*
X50000Y178000D03*
X-150000Y16000D03*
X-148000Y-10000D03*
X-160000Y-34000D03*
X-48000Y-166000D03*
X-68000Y-196000D03*
X-86000Y-230000D03*
X240000Y80000D03*
X266000Y82000D03*
X290000Y78000D03*
X-10000Y138000D03*
X-194000Y52000D03*
X-100000Y-264000D03*
X218000Y72000D03*
X26000Y148000D03*
X-168000Y40000D03*
X-102000Y-302000D03*
X194000Y56000D03*
D36*
X98000Y-327500D03*
X98000Y-308500D03*
D37*
X-86000Y54000D03*
X-106000Y54000D03*
X-106000Y32000D03*
X-86000Y32000D03*
D38*
X112500Y-50000D03*
X227500Y-175000D03*
X185000Y-267500D03*
X112500Y75000D03*
X-145000Y230000D03*
X-37500Y150000D03*
X155000Y-185000D03*
X147500Y-235000D03*
X177500Y-230000D03*
X142500Y-265000D03*
X117500Y-232500D03*
X50000Y-210000D03*
X52500Y-45000D03*
X57500Y-230000D03*
X162500Y-235000D03*
X162500Y-210000D03*
X155000Y-242500D03*
X155000Y-195000D03*
X185000Y-252500D03*
X162500Y-177500D03*
X107500Y-225000D03*
X77500Y-182500D03*
X92500Y-170000D03*
X-220000Y-147500D03*
X100000Y-217500D03*
X85000Y-155000D03*
X25000Y-145000D03*
X70000Y-102500D03*
X132500Y-95000D03*
X192500Y-245000D03*
X195000Y-102500D03*
X202500Y-240000D03*
X207500Y-115000D03*
X245000Y-212500D03*
X235000Y-102500D03*
X187500Y-210000D03*
X187500Y-95000D03*
X85000Y-77500D03*
X62500Y-45000D03*
X-162500Y-82500D03*
X167500Y-145000D03*
X160000Y-70000D03*
X130000Y10000D03*
X135000Y-47500D03*
X170000Y-135000D03*
X145000Y-20000D03*
X152500Y27500D03*
X225000Y210000D03*
X142500Y0D03*
X252500Y225000D03*
X282500Y205000D03*
X92500Y-67500D03*
X215000Y-217500D03*
X220000Y-137500D03*
X110000Y-102500D03*
X-110000Y260000D03*
X-130000Y-55000D03*
X-165000Y-72500D03*
X105000Y62500D03*
X-245000Y-157500D03*
X217500Y-250000D03*
X70000Y-155000D03*
X45000Y-155000D03*
X42500Y-202500D03*
X235000Y-212500D03*
X165000Y92500D03*
X-27500Y17500D03*
X-127500Y-237500D03*
X-260000Y227500D03*
X62500Y155000D03*
X-210000Y-125000D03*
X127500Y-202500D03*
X100000Y-155000D03*
X-215000Y122500D03*
X-222500Y130000D03*
X-172500Y120000D03*
X15000Y115000D03*
X-180000Y60000D03*
X-152500Y260000D03*
X-255000Y157500D03*
X-132500Y82500D03*
X-82500Y112500D03*
X-237500Y220000D03*
X167500Y257500D03*
X177500Y242500D03*
X205000Y210000D03*
X117500Y252500D03*
X112500Y267500D03*
X100000Y235000D03*
X150000Y240000D03*
X132500Y242500D03*
X185000Y287500D03*
X172500Y182500D03*
X137500Y262500D03*
X240000Y210000D03*
X75000Y127500D03*
X32500Y85000D03*
X85000Y120000D03*
X32500Y67500D03*
X-45000Y75000D03*
X107500Y102500D03*
X-22500Y-150000D03*
X-67500Y-142500D03*
X190000Y80000D03*
X142500Y-162500D03*
X125000Y-87500D03*
X-260000Y177500D03*
X67500Y-297500D03*
X60000Y-137500D03*
X-92500Y-135000D03*
X-67500Y-120000D03*
M02*
