G04 EAGLE Gerber RS-274X export*
G75*
%MOMM*%
%FSLAX34Y34*%
%LPD*%
%INSolderpaste Bottom*%
%IPPOS*%
%AMOC8*
5,1,8,0,0,1.08239X$1,22.5*%
G01*
%ADD10R,1.500000X1.300000*%
%ADD11R,1.300000X1.500000*%
%ADD12R,0.600000X0.800000*%
%ADD13R,0.700000X1.300000*%
%ADD14R,1.525000X0.700000*%
%ADD15R,1.000000X1.400000*%
%ADD16R,1.300000X1.600000*%
%ADD17R,0.635000X1.270000*%
%ADD18R,0.950000X2.150000*%
%ADD19R,3.250000X2.150000*%
%ADD20R,0.700000X0.500000*%
%ADD21R,1.400000X1.000000*%
%ADD22R,1.600200X1.168400*%
%ADD23R,1.270000X2.540000*%
%ADD24R,0.550000X1.200000*%


D10*
X-115320Y-60220D03*
X-115320Y-79220D03*
D11*
G36*
X119515Y-225522D02*
X110901Y-215786D01*
X122135Y-205848D01*
X130749Y-215584D01*
X119515Y-225522D01*
G37*
G36*
X132105Y-239752D02*
X123491Y-230016D01*
X134725Y-220078D01*
X143339Y-229814D01*
X132105Y-239752D01*
G37*
D10*
X-87560Y-60160D03*
X-87560Y-79160D03*
D12*
X-261260Y192140D03*
X-261260Y167140D03*
D13*
X-232230Y150940D03*
X-244930Y150940D03*
X-219530Y150940D03*
X-206830Y150940D03*
X-232230Y205940D03*
X-244930Y205940D03*
X-219530Y205940D03*
X-206830Y205940D03*
D14*
G36*
X142296Y-112292D02*
X153575Y-122555D01*
X148864Y-127732D01*
X137585Y-117469D01*
X142296Y-112292D01*
G37*
G36*
X133748Y-121685D02*
X145027Y-131948D01*
X140316Y-137125D01*
X129037Y-126862D01*
X133748Y-121685D01*
G37*
G36*
X125201Y-131079D02*
X136480Y-141342D01*
X131769Y-146519D01*
X120490Y-136256D01*
X125201Y-131079D01*
G37*
G36*
X116654Y-140472D02*
X127933Y-150735D01*
X123222Y-155912D01*
X111943Y-145649D01*
X116654Y-140472D01*
G37*
G36*
X76536Y-103968D02*
X87815Y-114231D01*
X83104Y-119408D01*
X71825Y-109145D01*
X76536Y-103968D01*
G37*
G36*
X85084Y-94575D02*
X96363Y-104838D01*
X91652Y-110015D01*
X80373Y-99752D01*
X85084Y-94575D01*
G37*
G36*
X93631Y-85181D02*
X104910Y-95444D01*
X100199Y-100621D01*
X88920Y-90358D01*
X93631Y-85181D01*
G37*
G36*
X102178Y-75788D02*
X113457Y-86051D01*
X108746Y-91228D01*
X97467Y-80965D01*
X102178Y-75788D01*
G37*
D15*
X-311640Y-130080D03*
X-321140Y-152080D03*
X-302140Y-152080D03*
D16*
X-191400Y202100D03*
X-172400Y202100D03*
X-84200Y131580D03*
X-103200Y131580D03*
D11*
X-291720Y-173740D03*
X-310720Y-173740D03*
D10*
X-270180Y-196280D03*
X-270180Y-177280D03*
D11*
G36*
X238389Y-241131D02*
X229843Y-250927D01*
X218541Y-241067D01*
X227087Y-231271D01*
X238389Y-241131D01*
G37*
G36*
X250879Y-226813D02*
X242333Y-236609D01*
X231031Y-226749D01*
X239577Y-216953D01*
X250879Y-226813D01*
G37*
G36*
X127510Y-80678D02*
X116746Y-73390D01*
X125156Y-60970D01*
X135920Y-68258D01*
X127510Y-80678D01*
G37*
G36*
X143244Y-91330D02*
X132480Y-84042D01*
X140890Y-71622D01*
X151654Y-78910D01*
X143244Y-91330D01*
G37*
D17*
X-112360Y107700D03*
X-102360Y107700D03*
X-92360Y107700D03*
X-92360Y82700D03*
X-102360Y82700D03*
X-112360Y82700D03*
D18*
X-141980Y301740D03*
X-118980Y301740D03*
X-95980Y301740D03*
D19*
X-118980Y243740D03*
D20*
X-283320Y-150060D03*
X-254770Y-140560D03*
X-254770Y-159560D03*
X-243480Y-125280D03*
X-214930Y-115780D03*
X-214930Y-134780D03*
D21*
X-218700Y-86280D03*
X-240700Y-76780D03*
X-240700Y-95780D03*
D11*
X-262400Y-96780D03*
X-281400Y-96780D03*
G36*
X-182142Y-83632D02*
X-169143Y-83768D01*
X-169300Y-98766D01*
X-182299Y-98630D01*
X-182142Y-83632D01*
G37*
G36*
X-201141Y-83434D02*
X-188142Y-83570D01*
X-188299Y-98568D01*
X-201298Y-98432D01*
X-201141Y-83434D01*
G37*
D10*
X-63120Y-61220D03*
X-63120Y-80220D03*
D11*
X-279580Y-120880D03*
X-260580Y-120880D03*
D22*
X114000Y195620D03*
X114000Y180380D03*
X114000Y214380D03*
X114000Y229620D03*
X162000Y214380D03*
X162000Y229620D03*
X138000Y214380D03*
X138000Y229620D03*
X186000Y214380D03*
X186000Y229620D03*
X138000Y193620D03*
X138000Y178380D03*
D10*
X268000Y217500D03*
X268000Y198500D03*
X288000Y191500D03*
X288000Y172500D03*
D23*
X-334000Y-96000D03*
X-314000Y-96000D03*
D24*
X-166500Y-251001D03*
X-176000Y-251001D03*
X-185500Y-251001D03*
X-185500Y-224999D03*
X-166500Y-224999D03*
D11*
X-149500Y-322000D03*
X-130500Y-322000D03*
D10*
X-206000Y-222500D03*
X-206000Y-241500D03*
X-142000Y-224500D03*
X-142000Y-243500D03*
X-170000Y-305500D03*
X-170000Y-286500D03*
D11*
X-185500Y-198000D03*
X-166500Y-198000D03*
D10*
X-148000Y-285500D03*
X-148000Y-266500D03*
M02*
