G04 EAGLE Gerber RS-274X export*
G75*
%MOMM*%
%FSLAX34Y34*%
%LPD*%
%INSoldermask Bottom*%
%IPPOS*%
%AMOC8*
5,1,8,0,0,1.08239X$1,22.5*%
G01*
%ADD10C,1.203200*%
%ADD11R,1.703200X1.503200*%
%ADD12R,1.503200X1.703200*%
%ADD13R,0.803200X1.003200*%
%ADD14R,0.903200X1.503200*%
%ADD15R,1.728200X0.903200*%
%ADD16R,1.203200X1.603200*%
%ADD17R,1.503200X1.803200*%
%ADD18R,0.838200X1.473200*%
%ADD19R,1.153200X2.353200*%
%ADD20R,3.453200X2.353200*%
%ADD21R,0.903200X0.703200*%
%ADD22R,1.603200X1.203200*%
%ADD23C,1.727200*%
%ADD24P,1.869504X8X67.900000*%
%ADD25R,1.803400X1.371600*%
%ADD26R,1.828800X0.152400*%
%ADD27R,1.473200X2.743200*%
%ADD28P,1.951982X8X22.500000*%
%ADD29R,0.753200X1.403200*%
%ADD30C,1.411200*%
%ADD31C,1.611200*%
%ADD32C,0.959600*%


D10*
X-366000Y-6000D03*
X348000Y-6000D03*
X-10000Y352000D03*
X-10000Y-362000D03*
X-95540Y-2520D03*
X78460Y-2520D03*
X-9540Y85480D03*
X-12000Y-90000D03*
D11*
X-115320Y-60220D03*
X-115320Y-79220D03*
D12*
G36*
X119428Y-226957D02*
X109467Y-215698D01*
X122222Y-204413D01*
X132183Y-215672D01*
X119428Y-226957D01*
G37*
G36*
X132018Y-241187D02*
X122057Y-229928D01*
X134812Y-218643D01*
X144773Y-229902D01*
X132018Y-241187D01*
G37*
D11*
X-87560Y-60160D03*
X-87560Y-79160D03*
D13*
X-261260Y192140D03*
X-261260Y167140D03*
D14*
X-232230Y150940D03*
X-244930Y150940D03*
X-219530Y150940D03*
X-206830Y150940D03*
X-232230Y205940D03*
X-244930Y205940D03*
X-219530Y205940D03*
X-206830Y205940D03*
D15*
G36*
X142229Y-110857D02*
X155010Y-122487D01*
X148931Y-129167D01*
X136150Y-117537D01*
X142229Y-110857D01*
G37*
G36*
X133681Y-120250D02*
X146462Y-131880D01*
X140383Y-138560D01*
X127602Y-126930D01*
X133681Y-120250D01*
G37*
G36*
X125134Y-129644D02*
X137915Y-141274D01*
X131836Y-147954D01*
X119055Y-136324D01*
X125134Y-129644D01*
G37*
G36*
X116587Y-139037D02*
X129368Y-150667D01*
X123289Y-157347D01*
X110508Y-145717D01*
X116587Y-139037D01*
G37*
G36*
X76469Y-102533D02*
X89250Y-114163D01*
X83171Y-120843D01*
X70390Y-109213D01*
X76469Y-102533D01*
G37*
G36*
X85017Y-93140D02*
X97798Y-104770D01*
X91719Y-111450D01*
X78938Y-99820D01*
X85017Y-93140D01*
G37*
G36*
X93564Y-83746D02*
X106345Y-95376D01*
X100266Y-102056D01*
X87485Y-90426D01*
X93564Y-83746D01*
G37*
G36*
X102111Y-74353D02*
X114892Y-85983D01*
X108813Y-92663D01*
X96032Y-81033D01*
X102111Y-74353D01*
G37*
D16*
X-311640Y-130080D03*
X-321140Y-152080D03*
X-302140Y-152080D03*
D17*
X-191400Y202100D03*
X-172400Y202100D03*
X-84200Y131580D03*
X-103200Y131580D03*
D12*
X-291720Y-173740D03*
X-310720Y-173740D03*
D11*
X-270180Y-196280D03*
X-270180Y-177280D03*
D12*
G36*
X239823Y-241034D02*
X229941Y-252360D01*
X217107Y-241164D01*
X226989Y-229838D01*
X239823Y-241034D01*
G37*
G36*
X252313Y-226716D02*
X242431Y-238042D01*
X229597Y-226846D01*
X239479Y-215520D01*
X252313Y-226716D01*
G37*
G36*
X127782Y-82089D02*
X115335Y-73661D01*
X124884Y-59559D01*
X137331Y-67987D01*
X127782Y-82089D01*
G37*
G36*
X143516Y-92741D02*
X131069Y-84313D01*
X140618Y-70211D01*
X153065Y-78639D01*
X143516Y-92741D01*
G37*
D18*
X-112360Y107700D03*
X-102360Y107700D03*
X-92360Y107700D03*
X-92360Y82700D03*
X-102360Y82700D03*
X-112360Y82700D03*
D19*
X-141980Y301740D03*
X-118980Y301740D03*
X-95980Y301740D03*
D20*
X-118980Y243740D03*
D21*
X-283320Y-150060D03*
X-254770Y-140560D03*
X-254770Y-159560D03*
X-243480Y-125280D03*
X-214930Y-115780D03*
X-214930Y-134780D03*
D22*
X-218700Y-86280D03*
X-240700Y-76780D03*
X-240700Y-95780D03*
D12*
X-262400Y-96780D03*
X-281400Y-96780D03*
G36*
X-183147Y-82605D02*
X-168117Y-82763D01*
X-168295Y-99793D01*
X-183325Y-99635D01*
X-183147Y-82605D01*
G37*
G36*
X-202146Y-82407D02*
X-187116Y-82565D01*
X-187294Y-99595D01*
X-202324Y-99437D01*
X-202146Y-82407D01*
G37*
D11*
X-63120Y-61220D03*
X-63120Y-80220D03*
D12*
X-279580Y-120880D03*
X-260580Y-120880D03*
D23*
X-12792Y-29003D03*
D24*
X5043Y-10917D03*
X22877Y7168D03*
X-30877Y-11168D03*
X-13043Y6917D03*
X4792Y25003D03*
D25*
X114000Y195620D03*
X114000Y180380D03*
D26*
X114000Y188000D03*
D25*
X114000Y214380D03*
X114000Y229620D03*
D26*
X114000Y222000D03*
D25*
X162000Y214380D03*
X162000Y229620D03*
D26*
X162000Y222000D03*
D25*
X138000Y214380D03*
X138000Y229620D03*
D26*
X138000Y222000D03*
D25*
X186000Y214380D03*
X186000Y229620D03*
D26*
X186000Y222000D03*
D25*
X138000Y193620D03*
X138000Y178380D03*
D26*
X138000Y186000D03*
D11*
X268000Y217500D03*
X268000Y198500D03*
X288000Y191500D03*
X288000Y172500D03*
D27*
X-334000Y-96000D03*
X-314000Y-96000D03*
D28*
X72000Y244000D03*
X64000Y210000D03*
X50000Y178000D03*
X-150000Y16000D03*
X-148000Y-10000D03*
X-160000Y-34000D03*
X-48000Y-166000D03*
X-68000Y-196000D03*
X-86000Y-230000D03*
X240000Y80000D03*
X266000Y82000D03*
X290000Y78000D03*
X-10000Y138000D03*
X-194000Y52000D03*
X-100000Y-264000D03*
X218000Y72000D03*
X26000Y148000D03*
X-168000Y40000D03*
X-102000Y-302000D03*
X194000Y56000D03*
D29*
X-166500Y-251001D03*
X-176000Y-251001D03*
X-185500Y-251001D03*
X-185500Y-224999D03*
X-166500Y-224999D03*
D30*
X98000Y-327500D03*
X98000Y-308500D03*
D12*
X-149500Y-322000D03*
X-130500Y-322000D03*
D11*
X-206000Y-222500D03*
X-206000Y-241500D03*
X-142000Y-224500D03*
X-142000Y-243500D03*
X-170000Y-305500D03*
X-170000Y-286500D03*
D12*
X-185500Y-198000D03*
X-166500Y-198000D03*
D11*
X-148000Y-285500D03*
X-148000Y-266500D03*
D31*
X-86000Y54000D03*
X-106000Y54000D03*
X-106000Y32000D03*
X-86000Y32000D03*
D32*
X112500Y-50000D03*
X227500Y-175000D03*
X185000Y-267500D03*
X112500Y75000D03*
X-145000Y230000D03*
X-37500Y150000D03*
X155000Y-185000D03*
X147500Y-235000D03*
X177500Y-230000D03*
X142500Y-265000D03*
X117500Y-232500D03*
X50000Y-210000D03*
X52500Y-45000D03*
X57500Y-230000D03*
X162500Y-235000D03*
X162500Y-210000D03*
X155000Y-242500D03*
X155000Y-195000D03*
X185000Y-252500D03*
X162500Y-177500D03*
X107500Y-225000D03*
X77500Y-182500D03*
X92500Y-170000D03*
X-220000Y-147500D03*
X100000Y-217500D03*
X85000Y-155000D03*
X25000Y-145000D03*
X70000Y-102500D03*
X132500Y-95000D03*
X192500Y-245000D03*
X195000Y-102500D03*
X202500Y-240000D03*
X207500Y-115000D03*
X245000Y-212500D03*
X235000Y-102500D03*
X187500Y-210000D03*
X187500Y-95000D03*
X85000Y-77500D03*
X62500Y-45000D03*
X-162500Y-82500D03*
X167500Y-145000D03*
X160000Y-70000D03*
X130000Y10000D03*
X135000Y-47500D03*
X170000Y-135000D03*
X145000Y-20000D03*
X152500Y27500D03*
X225000Y210000D03*
X142500Y0D03*
X252500Y225000D03*
X282500Y205000D03*
X92500Y-67500D03*
X215000Y-217500D03*
X220000Y-137500D03*
X110000Y-102500D03*
X-110000Y260000D03*
X-130000Y-55000D03*
X-165000Y-72500D03*
X105000Y62500D03*
X-245000Y-157500D03*
X217500Y-250000D03*
X70000Y-155000D03*
X45000Y-155000D03*
X42500Y-202500D03*
X235000Y-212500D03*
X165000Y92500D03*
X-27500Y17500D03*
X-127500Y-237500D03*
X-260000Y227500D03*
X62500Y155000D03*
X-210000Y-125000D03*
X127500Y-202500D03*
X100000Y-155000D03*
X-215000Y122500D03*
X-222500Y130000D03*
X-172500Y120000D03*
X15000Y115000D03*
X-180000Y60000D03*
X-152500Y260000D03*
X-255000Y157500D03*
X-132500Y82500D03*
X-82500Y112500D03*
X-237500Y220000D03*
X167500Y257500D03*
X177500Y242500D03*
X205000Y210000D03*
X117500Y252500D03*
X112500Y267500D03*
X100000Y235000D03*
X150000Y240000D03*
X132500Y242500D03*
X185000Y287500D03*
X172500Y182500D03*
X137500Y262500D03*
X240000Y210000D03*
X75000Y127500D03*
X32500Y85000D03*
X85000Y120000D03*
X32500Y67500D03*
X-45000Y75000D03*
X107500Y102500D03*
X-22500Y-150000D03*
X-67500Y-142500D03*
X190000Y80000D03*
X142500Y-162500D03*
X125000Y-87500D03*
X-260000Y177500D03*
X67500Y-297500D03*
X60000Y-137500D03*
X-92500Y-135000D03*
X-67500Y-120000D03*
M02*
