M48
;GenerationSoftware,Autodesk,EAGLE,9.5.2*%
;CreationDate,2020-02-04T04:17:45Z*%
FMAT,2
ICI,OFF
METRIC,TZ,000.000
T6C0.350
T5C0.700
T4C0.813
T3C0.900
T2C1.000
T1C1.016
%
G90
M71
T1
X-1279Y-2900
X504Y-1092
X2288Y717
X-3088Y-1117
X-1304Y692
X479Y2500
T2
X-36600Y-600
X34800Y-600
X-1000Y35200
X-1000Y-36200
X-9554Y-252
X7846Y-252
X-954Y8548
X-1200Y-9000
T3
X-8600Y3200
X-8600Y5400
X-10600Y5400
X-10600Y3200
T4
X-15000Y1600
X-14800Y-1000
X-16000Y-3400
X-4800Y-16600
X-8600Y-23000
X24000Y8000
X26600Y8200
X29000Y7800
X-1000Y13800
X-19400Y5200
X-10000Y-26400
X21800Y7200
X2600Y14800
X-16800Y4000
X-10200Y-30200
X19400Y5600
X7200Y24400
X6400Y21000
X5000Y17800
X-6800Y-19600
T5
X9800Y-32750
X9800Y-30850
T6
X16750Y-14500
X16000Y-7000
X13000Y1000
X13500Y-4750
X17000Y-13500
X14500Y-2000
X15250Y2750
X22500Y21000
X14250Y0
X25250Y22500
X28250Y20500
X9250Y-6750
X21500Y-21750
X22000Y-13750
X11000Y-10250
X-11000Y26000
X-13000Y-5500
X-16500Y-7250
X10500Y6250
X-24500Y-15750
X21750Y-25000
X7000Y-15500
X4500Y-15500
X4250Y-20250
X23500Y-21250
X16500Y9250
X-2750Y1750
X-12750Y-23750
X-26000Y22750
X6250Y15500
X-21000Y-12500
X12750Y-20250
X10000Y-15500
X-21500Y12250
X-22250Y13000
X18500Y-25250
X1500Y11500
X-18000Y6000
X-15250Y26000
X-25500Y15750
X-13250Y8250
X-8250Y11250
X-23750Y22000
X16750Y25750
X17750Y24250
X20500Y21000
X11750Y25250
X11250Y26750
X10000Y23500
X15000Y24000
X13250Y24250
X18500Y28750
X17250Y18250
X13750Y26250
X24000Y21000
X7500Y12750
X3250Y8500
X8500Y12000
X3250Y6750
X-4500Y7500
X10750Y10250
X-2250Y-15000
X-6750Y-14250
X19000Y8000
X14250Y-16250
X12500Y-8750
X-26000Y17750
X6750Y-29750
X6000Y-13750
X-9250Y-13500
X-6750Y-12000
X11250Y-5000
X22750Y-17500
X18500Y-26750
X11250Y7500
X-14500Y23000
X-3750Y15000
X15500Y-18500
X14750Y-23500
X17750Y-23000
X14250Y-26500
X11750Y-23250
X5000Y-21000
X5250Y-4500
X5750Y-23000
X16250Y-23500
X16250Y-21000
X15500Y-24250
X15500Y-19500
X16250Y-17750
X10750Y-22500
X7750Y-18250
X-17250Y12000
X9250Y-17000
X-22000Y-14750
X10000Y-21750
X8500Y-15500
X2500Y-14500
X7000Y-10250
X13250Y-9500
X19250Y-24500
X19500Y-10250
X20250Y-24000
X20750Y-11500
X24500Y-21250
X23500Y-10250
X18750Y-21000
X18750Y-9500
X8500Y-7750
X6250Y-4500
X-16250Y-8250
M30